<svg xmlns="http://www.w3.org/2000/svg" xml:space="preserve" style="enable-background:new 0 0 122.88 66.91"><path d="M15.23 19.71c-2.65 0-6.65-1.62-9.9-4.71C1.57 11.44-1.38 4.99.66 2.83l1.71-1.8C2.81.56 3.41.3 4.06.28 4.7.27 5.32.5 5.78.94L7.7 2.76c1.07 1.02 1.21 2.32.36 3.22l-1.1 1.16c.63 1.27 1.5 2.43 2.57 3.42 1.06 1.03 2.27 1.84 3.61 2.41l1.06-1.16c.88-.92 2.11-.88 3.14.09l1.92 1.82c.96.91 1 2.44.09 3.41l-1.71 1.8c-.49.52-1.33.78-2.38.78ZM2.12 4.21c-.54.74.56 5.52 4.59 9.35 4.01 3.81 8.78 4.6 9.46 4l1.71-1.8c.1-.11.11-.23.11-.29s-.02-.19-.13-.29l-1.92-1.82c-.17-.16-.28-.21-.31-.21l-1.1 1.2c-.56.59-1.41.78-2.17.47-1.59-.68-3-1.62-4.22-2.81a13.745 13.745 0 0 1-2.99-4.04c-.35-.76-.21-1.62.35-2.21L6.6 4.6s-.05-.18-.28-.4L4.41 2.38c-.11-.1-.22-.1-.29-.11-.06 0-.18.02-.29.13L2.12 4.2Zm0 0Z"/></svg>