<svg xmlns="http://www.w3.org/2000/svg" viewBox="0 0 20 20"><path d="M19.95 4.87c-.53.8-1.17 1.5-1.92 2.07v.36c0 2.87-1.09 5.78-2.99 7.97-1.52 1.76-4.26 3.86-8.63 3.86-2.22 0-4.39-.65-6.26-1.87a.328.328 0 0 1-.13-.39c.05-.14.19-.23.34-.22.3.04.61.05.91.05 1.46 0 2.85-.41 4.06-1.18a4.351 4.351 0 0 1-3.15-2.93.37.37 0 0 1 .07-.32c.08-.09.19-.13.3-.1.11.02.22.04.33.05a4.405 4.405 0 0 1-2.1-3.76V8.4c0-.11.06-.22.16-.28s.22-.06.32 0c.18.1.38.19.57.26A4.422 4.422 0 0 1 .81 5.55c0-.77.2-1.53.58-2.2.05-.09.15-.15.25-.16.11 0 .21.04.28.12C3.8 5.65 6.53 7.12 9.46 7.38c-.02-.19-.04-.37-.04-.56 0-2.41 1.93-4.37 4.29-4.37 1.12 0 2.21.45 3.01 1.25.79-.18 1.55-.48 2.25-.91.12-.07.26-.06.37.03.1.08.15.23.11.36-.18.58-.48 1.11-.87 1.56.33-.1.65-.22.97-.36.13-.06.29-.02.38.09.09.11.1.27.02.39Z"/></svg>