<svg width="446" height="575" viewBox="0 0 446 575" xmlns="http://www.w3.org/2000/svg">
    <path d="M138.28 120.065c-.969 0-1.545.012-1.662.026l-103.751-.252.039-13.572 103.16.278c26.674-1.086 37.151 18.389 40.568 27.437-4.714-5.873-12.4-10.067-22.535-12.265-6.772-1.454-12.965-1.652-15.819-1.652zm38.354-16.153c-4.714-5.873-12.4-10.067-22.535-12.25-6.772-1.468-12.965-1.667-15.819-1.667-.956 0-1.545.027-1.65.027L32.867 89.77l.039-13.574 103.16.278c26.674-1.098 37.151 18.389 40.568 27.437zm-22.55-42.318c-6.769-1.47-12.962-1.667-15.804-1.667-1.048 0-1.637.025-1.65.025L32.867 59.7l.039-13.572 103.148.278c26.647-1.14 37.15 18.387 40.568 27.435-4.702-5.873-12.388-10.067-22.537-12.248zM211 67.67c-.42-16.747-5.989-30.788-16.347-41.649-10.084-10.597-24.592-16.854-39.834-17.144L48.24 8.73C30.236 8.545 16.002 8.4.956.5L0 0v156.801h162.924c5.303 0 9.559.398 13.435 1.257 15.688 3.439 26.85 12.124 33.515 18.817L211 178V67.67zm98.35 22.325c-.093 0-8.252-.356-17.5 1.64-10.153 2.183-17.842 6.387-22.544 12.247 3.314-8.794 13.335-27.469 38.433-27.469.708 0 1.44.014 2.175.04l103.155-.278.04 13.57-103.76.25zm0 30.06c-.093 0-8.252-.37-17.5 1.64-10.153 2.183-17.842 6.389-22.544 12.247 3.314-8.794 13.335-27.469 38.433-27.469.708 0 1.44.014 2.175.041l103.155-.28.04 13.57-103.76.251zm.564-73.662 103.168-.278.039 13.568-103.771.253c-.078 0-8.24-.359-17.5 1.64-10.14 2.18-17.828 6.386-22.544 12.245 3.327-8.793 13.335-27.468 38.433-27.468.72 0 1.44.013 2.175.04zM445.044.503c-15.064 7.894-29.29 8.04-47.301 8.225l-106.628.146c-15.234.304-29.76 6.545-39.847 17.14-10.349 10.87-15.81 24.862-16.23 41.619L235 178l1.112-1.124c6.682-6.693 17.775-15.413 33.469-18.865 3.864-.86 8.135-1.242 13.426-1.242H446V0l-.956.503zM223 462C262.154 462 294 494.186 294 533.738c0 4.903-.499 9.818-1.482 14.642l-.078.372-.355.118c-7.497 2.472-18.12 6.379-28.784 10.421l-1.828.694-1.15.438-1.149.438-1.145.438c-17.923 6.856-34.5 13.486-34.78 13.595l-.248.106-.236-.106c-.472-.185-47.416-18.961-68.835-26.024l-.368-.118-.08-.372A73.375 73.375 0 0 1 152 533.738c0-8.799 1.562-17.397 4.644-25.547a71.748 71.748 0 0 1 13.798-22.698C183.887 470.561 203.05 462 223.001 462zM0 325l1.287 1.415L140 486.854l-.224.41c-7.634 13.978-11.681 29.86-11.681 45.939 0 1.243.026 2.472.078 3.7l.053 1.097-.985-.476c-35.988-17.256-66.826-43.984-89.176-77.307C13.166 423.13 0 379.767 0 334.817V325zm446 0v9.817c0 44.949-13.166 88.312-38.065 125.401-22.35 33.322-53.188 60.052-89.178 77.308l-.985.474.053-1.097c.052-1.228.079-2.457.079-3.699 0-16.08-4.033-31.96-11.682-45.94l-.222-.409 23.729-27.444 115.128-133.155L446 325zM85.057 182l.458 1.459L172 453.106l-.433.278a95.056 95.056 0 0 0-10.283 7.725 95.067 95.067 0 0 0-6.715 6.362l-.499.529-5.98-6.957L0 288.937V182h85.057zM446 182v106.937l-4.04 4.716L291.93 468l-.5-.531a95.04 95.04 0 0 0-6.714-6.36 94.093 94.093 0 0 0-10.283-7.725l-.433-.28.158-.49L360.945 182H446zm-276.388 0C192.435 182 211 200.798 211 223.904v215.173l-.21.027-.353.039a92.213 92.213 0 0 0-16.274 3.645l-.617.212L110 182h59.612zM336 182l-.588 1.856L252.452 443l-.617-.214c-.588-.184-1.19-.37-1.793-.542l-.117-.053a99.742 99.742 0 0 0-3.719-1.007 87.949 87.949 0 0 0-5.3-1.167 35.996 35.996 0 0 0-2.357-.425l-.014.014-.326-.066c-.066-.015-.12-.027-.172-.027h-.013c-.785-.146-1.571-.251-2.368-.36l-.564-.078-.092-.583V223.904C235 200.798 253.564 182 276.368 182H336z" fill="#FFF" fill-rule="evenodd" opacity=".03"/>
</svg>
