<?xml version="1.0" encoding="UTF-8"?>
<svg width="146px" height="71px" viewBox="0 0 146 71" version="1.1" xmlns="http://www.w3.org/2000/svg" xmlns:xlink="http://www.w3.org/1999/xlink">
    <title>ED9CF33D-3AD1-41F6-953C-D1949B249A2D</title>
    <defs>
        <path d="M42.1944385,1.26342468 C42.1944385,1.9699104 42.7185313,2.57227669 43.4498484,2.57227669 L43.4498484,2.57227669 C44.1414238,2.57227669 44.6862745,1.9699104 44.6862745,1.26342468 L44.6862745,1.26342468 C44.6862745,0.554395039 44.1414238,0 43.4498484,0 L43.4498484,0 C42.7185313,0 42.1944385,0.554395039 42.1944385,1.26342468 M17.5734314,1.26233443 L17.5734314,4.47659003 C16.8836302,4.15496459 15.8384607,3.8558711 14.8317909,3.8558711 L14.8317909,3.8558711 C12.1346823,3.8558711 10.5854682,5.50342922 10.3535829,8.16328978 L10.3535829,8.16328978 C10.2913092,8.9364628 10.2913092,10.4580964 10.3535829,11.2089192 L10.3535829,11.2089192 C10.5854682,13.8431587 12.2995036,15.625 15.12595,15.625 L15.12595,15.625 C17.1549024,15.625 18.8494218,14.7006448 19.3951596,14.2912538 L19.3951596,14.2912538 C19.730657,14.0572123 19.7938179,13.8200816 19.7938179,13.4346762 L19.7938179,13.4346762 L19.7938179,1.26233443 C19.7938179,0.619992092 19.3103538,0.104119422 18.6826488,0.104119422 L18.6826488,0.104119422 C18.0776534,0.104119422 17.5734314,0.619992092 17.5734314,1.26233443 M12.5700661,10.9274515 C12.509744,10.2634857 12.5296148,9.00060618 12.5700661,8.41931817 L12.5700661,8.41931817 C12.6568235,6.8568 13.409963,6.04056187 14.9996283,6.04056187 L14.9996283,6.04056187 C16.0900394,6.04056187 17.135209,6.42778437 17.5734314,6.70725325 L17.5734314,6.70725325 L17.5734314,12.663502 C17.1549024,12.9869446 16.0683944,13.4346762 15.1674658,13.4346762 L15.1674658,13.4346762 C13.5549135,13.4346762 12.6981619,12.5780987 12.5700661,10.9274515 M31.9458871,5.03334729 C31.6332766,5.24976305 31.5039389,5.46490685 31.5039389,5.91172999 L31.5039389,5.91172999 L31.5039389,14.3341372 C31.5039389,14.9779332 32.0278542,15.4945327 32.6159949,15.4945327 L32.6159949,15.4945327 C33.2417483,15.4945327 33.7252124,14.9779332 33.7252124,14.3341372 L33.7252124,14.3341372 L33.7252124,6.64401842 C34.2028216,6.342381 35.1887335,6.04056187 36.2120806,6.04056187 L36.2120806,6.04056187 C37.511845,6.04056187 38.6437719,6.7708515 38.6437719,8.48600548 L38.6437719,8.48600548 L38.6437719,14.3341372 C38.6437719,14.9779332 39.1648486,15.4945327 39.7510377,15.4945327 L39.7510377,15.4945327 C40.4014521,15.4945327 40.8613196,14.9779332 40.8613196,14.3341372 L40.8613196,14.3341372 L40.8613196,8.37788845 C40.8613196,5.48307778 39.3108636,3.8558711 36.2773704,3.8558711 L36.2773704,3.8558711 C34.0804032,3.8558711 32.5517696,4.56344707 31.9458871,5.03334729 M22.4889749,4.49675976 C21.9244307,4.75533208 21.7548191,5.18398429 21.7548191,5.5499468 L21.7548191,5.5499468 C21.7548191,6.21391254 22.3635403,6.70725325 23.2845172,6.40543413 L23.2845172,6.40543413 C23.8705289,6.191744 24.7084742,5.93498878 25.5661128,5.93498878 L25.5661128,5.93498878 C27.196407,5.93498878 27.8892243,6.55661625 27.8892243,8.01410646 L27.8892243,8.01410646 L27.8892243,8.71950191 C26.9249574,8.48600548 26.2115596,8.35826385 25.2295509,8.35826385 L25.2295509,8.35826385 C22.3005569,8.35826385 20.9809218,10.0517944 20.9809218,11.9155866 L20.9809218,11.9155866 C20.9809218,14.0159643 22.4031045,15.625 25.2708893,15.625 L25.2708893,15.625 C27.4479857,15.625 29.0397801,14.8285682 29.6268563,14.4231748 L29.6268563,14.4231748 C29.9399991,14.2069407 30.0228533,13.9739894 30.0228533,13.587312 L30.0228533,13.587312 L30.0228533,8.01410646 C30.0228533,5.11947749 28.3687852,3.8558711 25.6903055,3.8558711 L25.6903055,3.8558711 C24.4173312,3.8558711 23.096809,4.19657602 22.4889749,4.49675976 M23.1581956,11.8316369 C23.1581956,10.8011635 24.0779306,10.2206023 25.354808,10.2206023 L25.354808,10.2206023 C26.298317,10.2206023 26.9673603,10.3508879 27.8892243,10.5843843 L27.8892243,10.5843843 L27.8892243,12.9665931 C27.6779194,13.135401 26.9061511,13.6307406 25.4605491,13.6307406 L25.4605491,13.6307406 C23.9752055,13.6307406 23.1581956,12.9869446 23.1581956,11.8316369 M1.50202088,4.49675976 C0.93765419,4.75533208 0.767687735,5.18398429 0.767687735,5.5499468 L0.767687735,5.5499468 C0.767687735,6.21391254 1.37569926,6.70725325 2.29738583,6.40543413 L2.29738583,6.40543413 C2.88357494,6.191744 3.72258471,5.93498878 4.57809436,5.93498878 L4.57809436,5.93498878 C6.21158199,5.93498878 6.90138322,6.55661625 6.90138322,8.01410646 L6.90138322,8.01410646 L6.90138322,8.71950191 C5.93835826,8.48600548 5.22744429,8.35826385 4.24348399,8.35826385 L4.24348399,8.35826385 C1.41331188,8.35826385 0.0867574075,9.9400432 0,11.7260638 L0,11.7260638 L0,12.1196461 C0.0897735137,14.1184483 1.51089178,15.625 4.2839353,15.625 L4.2839353,15.625 C6.46316073,15.625 8.05211644,14.8285682 8.64025715,14.4231748 L8.64025715,14.4231748 C8.9530451,14.2069407 9.03607673,13.9739894 9.03607673,13.587312 L9.03607673,13.587312 L9.03607673,8.01410646 C9.03607673,5.11947749 7.38200861,3.8558711 4.70441599,3.8558711 L4.70441599,3.8558711 C3.42736114,3.8558711 2.11003241,4.19657602 1.50202088,4.49675976 M2.17319322,11.8316369 C2.17319322,10.8011635 3.09186368,10.2206023 4.36891853,10.2206023 L4.36891853,10.2206023 C5.3102985,10.2206023 5.98164825,10.3508879 6.90138322,10.5843843 L6.90138322,10.5843843 L6.90138322,12.9665931 C6.69309448,13.135401 5.91653584,13.6307406 4.47253065,13.6307406 L4.47253065,13.6307406 C2.98825156,13.6307406 2.17319322,12.9869446 2.17319322,11.8316369 M42.3404536,5.20815162 L42.3404536,14.3797462 C42.3404536,15.0235423 42.8645464,15.5401418 43.4498484,15.5401418 L43.4498484,15.5401418 C44.0775533,15.5401418 44.5619045,15.0235423 44.5619045,14.3797462 L44.5619045,14.3797462 L44.5619045,5.20815162 C44.5619045,4.565991 44.0576825,4.05011833 43.4498484,4.05011833 L43.4498484,4.05011833 C42.8221435,4.05011833 42.3404536,4.565991 42.3404536,5.20815162" id="path-1"></path>
    </defs>
    <g id="M--Web-Designs" stroke="none" stroke-width="1" fill="none" fill-rule="evenodd">
        <g id="AIS-Mobile-Hamburger-Page-Copy" transform="translate(-28.000000, -28.000000)">
            <g id="Group-89-Copy" transform="translate(28.000000, 28.000000)">
                <g id="Group-51" transform="translate(0.000000, 4.000000)" fill="#FFFFFF">
                    <path d="M10.4965226,9.60865156 C10.4229979,9.60865156 10.3792332,9.60965474 10.3703456,9.61080122 L2.49485649,9.5905945 L2.49781903,8.50444771 L10.3284662,8.52666076 C12.3532226,8.43981488 13.148528,9.99831156 13.4078842,10.7224572 C13.0500911,10.2524003 12.4666068,9.91676815 11.6972909,9.74092673 C11.1832915,9.62455898 10.7131915,9.60865156 10.4965226,9.60865156 L10.4965226,9.60865156 Z M13.4078842,8.315995 C13.0500911,7.84593807 12.4666068,7.51030596 11.6972909,7.33561102 C11.1832915,7.21809679 10.7131915,7.20218937 10.4965226,7.20218937 C10.4239405,7.20218937 10.3792332,7.20433902 10.3712883,7.20433902 L2.49485649,7.18427562 L2.49781903,6.09798551 L10.3284662,6.12019857 C12.3532226,6.03234952 13.148528,7.59184937 13.4078842,8.315995 L13.4078842,8.315995 Z M11.6962137,4.92929214 C11.1823489,4.81163459 10.7122488,4.79587049 10.4965226,4.79587049 C10.4169382,4.79587049 10.3722309,4.79787683 10.3712883,4.79787683 L2.49485649,4.77781342 L2.49781903,3.69166663 L10.3275236,3.71387969 C12.3502601,3.6227345 13.1474507,5.18538718 13.4069416,5.90953281 C13.0500911,5.43947588 12.4666068,5.10384377 11.6962137,4.92929214 L11.6962137,4.92929214 Z M16.0165289,5.4155431 C15.9846144,4.07530761 15.5619148,2.95161358 14.7756317,2.08243819 C14.010221,1.23432937 12.9089668,0.733604095 11.7519631,0.710387868 L3.66182505,0.698636445 C2.29515486,0.683875511 1.2146384,0.672267398 0.0725820505,0.0401268112 L0,0 L0,12.548657 L12.3672273,12.548657 C12.7697278,12.548657 13.0927785,12.5804719 13.3870119,12.6492607 C14.5778153,12.924416 15.4250997,13.6194697 15.9310195,14.1551626 L16.0165289,14.2451613 L16.0165289,5.4155431 Z" id="Fill-1"></path>
                    <path d="M23.6271894,7.20224901 C23.6201859,7.20224901 23.000783,7.17373461 22.2988199,7.3335012 C21.528169,7.50816978 20.9444568,7.84461098 20.5875493,8.31359397 C20.8391354,7.60976126 21.5998199,6.11526307 23.5048981,6.11526307 C23.5586362,6.11526307 23.6142599,6.11640938 23.6700183,6.11841542 L31.5003004,6.09620571 L31.5032634,7.18218863 L23.6271894,7.20224901 Z M23.6271894,9.60791824 C23.6201859,9.60791824 23.000783,9.57825754 22.2988199,9.73917043 C21.528169,9.91383901 20.9444568,10.2504235 20.5875493,10.7192632 C20.8391354,10.0154305 21.5998199,8.52093231 23.5048981,8.52093231 C23.5586362,8.52093231 23.6142599,8.52207862 23.6700183,8.52422794 L31.5003004,8.50187495 L31.5032634,9.58785786 L23.6271894,9.60791824 Z M23.6700183,3.71274618 L31.5012432,3.69053647 L31.5042062,4.7763761 L23.6271894,4.79657977 C23.6212634,4.79657977 23.0017258,4.76792208 22.2988199,4.92783196 C21.5291118,5.10235725 20.9455343,5.43894174 20.5875493,5.90778144 C20.8400782,5.20409203 21.5998199,3.70959383 23.5048981,3.70959383 C23.559579,3.70959383 23.6142599,3.71059685 23.6700183,3.71274618 L23.6700183,3.71274618 Z M33.9274064,0.0402640453 C32.7839554,0.672022677 31.7040744,0.683629039 30.3369165,0.698531034 L22.2430616,0.710137396 C21.0866811,0.734496427 19.9840389,1.23399985 19.2183712,2.08183741 C18.4327705,2.9517414 18.0182191,4.07154038 17.9862994,5.41257667 L17.9834711,14.2451613 L18.0679167,14.1551762 C18.5751295,13.6195641 19.4171619,12.9217495 20.608425,12.6454894 C20.9017626,12.576711 21.2259424,12.5460472 21.6275644,12.5460472 L34,12.5460472 L34,0 L33.9274064,0.0402640453 Z" id="Fill-3"></path>
                    <path d="M22.4793388,42.7490102 C22.4793388,43.1352958 22.4408431,43.5225708 22.3649476,43.9026374 L22.3589198,43.931895 L22.3315207,43.9412236 C20.6785335,44.497684 17.0556887,45.9771027 17.0192479,45.9916609 L17.0000685,46 L16.9818481,45.9916609 C16.9454073,45.9771027 13.3225624,44.497684 11.6695752,43.9412236 L11.6412172,43.931895 L11.6350524,43.9026374 C11.5591569,43.5225708 11.5206612,43.1352958 11.5206612,42.7490102 C11.5206612,42.0557315 11.6412172,41.3782829 11.8790413,40.7361697 C12.1239892,40.0742687 12.4823693,39.4718723 12.943907,38.947779 C13.9815106,37.7712546 15.4603765,37.0967742 17.0000685,37.0967742 C20.0216403,37.0967742 22.4793388,39.6327187 22.4793388,42.7490102" id="Fill-5"></path>
                    <path d="M10.6605973,39.0028224 C10.078363,40.1130339 9.76968255,41.3742569 9.76968255,42.6512488 C9.76968255,42.7499816 9.77171692,42.847578 9.77565001,42.9451743 L9.77971874,43.0322581 L9.70458298,42.9944697 C6.9598223,41.6240013 4.60782904,39.5013166 2.90316964,36.8548507 C1.00416089,33.9094872 0,30.4656295 0,26.8957632 L0,26.116129 L0.0981918535,26.2284998 L10.677686,38.9702903 L10.6605973,39.0028224 Z" id="Fill-7"></path>
                    <path d="M11.8306073,37.4174438 C11.8298547,37.4181756 11.8289946,37.419012 11.828242,37.4197438 L11.8544745,37.444521 L11.8306073,37.4174438 Z" id="Fill-9"></path>
                    <path d="M11.7957111,37.2781579 C11.7966652,37.2771545 11.7977555,37.2760078 11.7987096,37.2750044 L11.8289665,37.3119867 L11.7957111,37.2781579 Z M6.56602977,14.6584727 L6.5308663,14.5419355 L0,14.5419355 L0,23.0862771 L11.370751,36.8376674 L11.8299205,37.3935484 L11.8682188,37.3512624 C12.032315,37.1733748 12.2055428,37.0017942 12.3838135,36.842971 C12.6315933,36.6206473 12.8973638,36.4120844 13.1733562,36.2257395 L13.2066116,36.2035215 L6.56602977,14.6584727 Z" id="Fill-11"></path>
                    <path d="M16.0165289,17.8773034 L16.0165289,35.003849 L16.0008224,35.0059918 L15.9742012,35.0091346 C15.562105,35.0661336 15.1510736,35.1631318 14.7517555,35.2992722 L14.7054346,35.316129 L8.42975207,14.5419355 L12.9075716,14.5419355 C14.6219772,14.5419355 16.0165289,16.038194 16.0165289,17.8773034" id="Fill-13"></path>
                    <path d="M34,26.116129 L34,26.8957697 C34,30.465524 32.9958264,33.9094106 31.0967935,36.8549409 C29.3922481,39.5012869 27.0402249,41.6241315 24.2952938,42.9946114 L24.220157,43.0322581 L24.2242258,42.9451736 C24.228159,42.8475764 24.2301934,42.7499793 24.2301934,42.6513877 C24.2301934,41.3743851 23.922594,40.1131515 23.3392673,39.0029306 L23.322314,38.9703982 L25.1321051,36.7908706 L33.9127926,26.2158571 L34,26.116129 Z" id="Fill-15"></path>
                    <path d="M34,14.5419355 L34,23.0862771 L33.6897982,23.4631237 L22.1700795,37.3935484 L22.1317812,37.3511191 C21.967685,37.1732314 21.7944572,37.0017942 21.6161865,36.842971 C21.369497,36.6206473 21.1035903,36.4130878 20.8266438,36.2257395 L20.7933884,36.2033781 L20.8055185,36.1642457 L27.46927,14.5419355 L34,14.5419355 Z" id="Fill-17"></path>
                    <path d="M25.5702479,14.5419355 L25.5260629,14.6896461 L19.2943814,35.316129 L19.248067,35.2991295 C19.203882,35.2844155 19.1586323,35.2697016 19.1133826,35.2559877 L19.1045988,35.2517021 C19.0130347,35.2232742 18.9236,35.1978463 18.8252485,35.1715612 C18.6894994,35.1355621 18.5558797,35.1039915 18.4270512,35.0787064 C18.3679604,35.0649925 18.3099343,35.0544213 18.250045,35.0448501 L18.2489803,35.0459929 L18.2244922,35.0407074 C18.219568,35.0395645 18.2155754,35.0385646 18.2115828,35.0385646 L18.2106512,35.0385646 C18.1516935,35.0269934 18.0926027,35.0185651 18.0327134,35.0099938 L17.9903916,35.0037083 L17.9834711,34.9572809 L17.9834711,17.8772804 C17.9834711,16.0381837 19.3779602,14.5419355 21.0909274,14.5419355 L25.5702479,14.5419355 Z" id="Fill-19"></path>
                </g>
                <g id="Group-4" transform="translate(40.000000, 0.000000)">
                    <g id="Group-89" transform="translate(0.000000, 18.750000)" fill="#FFFFFF">
                        <path d="M0.936730137,2.25873619 C0.936730137,1.49368228 1.50617694,0.965472638 2.29591492,0.965472638 C3.08565291,0.965472638 3.65509971,1.49368228 3.65509971,2.25873619 C3.65509971,3.00561641 3.08565291,3.53382605 2.29591492,3.53382605 C1.50617694,3.53382605 0.936730137,3.00561641 0.936730137,2.25873619 L0.936730137,2.25873619 Z M0.238812984,13.0607503 C0.991901453,12.9696864 1.28568871,12.5325407 1.28568871,11.8767244 L1.28568871,7.55959252 C1.28568871,6.8127123 1.26736395,6.35739286 0.73476371,6.35739286 L0,6.35739286 L0,5.77446672 C2.16744457,5.42838486 3.74711759,4.86363241 3.74711759,4.86363241 L3.80209186,4.91834891 C3.80209186,4.91834891 3.63677495,5.51944875 3.63677495,6.99484008 L3.63677495,11.8767244 C3.63677495,12.4233031 3.54495412,12.8604489 3.54495412,12.8604489 L5.0142845,13.0244029 L4.94078843,13.5707863 L0.238812984,13.6802193 L0.238812984,13.0607503 Z" id="Fill-21"></path>
                        <path d="M5.76709711,13.0608285 C6.52018558,12.9697646 6.81397284,12.5326189 6.81397284,11.8768025 L6.81397284,7.55967069 C6.81397284,6.81279047 6.79564808,6.35727561 6.26304784,6.35727561 L5.52828413,6.35727561 L5.52828413,5.77434947 C7.6957287,5.42826761 9.23855516,4.86371058 9.23855516,4.86371058 L9.29352943,4.91842708 C9.29352943,4.91842708 9.12840957,5.31903002 9.03658873,6.94020174 C9.67933457,6.10245305 10.7997064,5.11872855 12.3058833,5.11872855 C13.5732473,5.11872855 14.4914556,5.81089227 14.4914556,7.57784438 L14.4914556,11.8768025 C14.4914556,12.4231859 14.3998318,12.8421579 14.3998318,12.8421579 L15.8691622,13.0242857 L15.7956661,13.5708644 L11.3139819,13.680102 L11.3139819,13.0608285 C11.9384029,12.9697646 12.1405664,12.5326189 12.1405664,11.8768025 L12.1405664,8.2881818 C12.1405664,7.01309194 11.8284544,6.72172658 11.1120154,6.72172658 C10.5059191,6.72172658 9.75283064,6.94020174 9.16505908,7.3957166 L9.16505908,11.8768025 C9.16505908,12.4231859 9.07323825,12.8421579 9.07323825,12.8421579 L10.2302596,13.0242857 L10.1567635,13.5708644 L5.76709711,13.680102 L5.76709711,13.0608285 Z" id="Fill-23"></path>
                        <path d="M17.3380197,7.68716013 C17.3380197,7.15875508 17.3929939,6.50313416 17.3929939,6.50313416 L16.2174508,6.50313416 L16.2174508,5.71990655 C16.2174508,5.71990655 17.0625572,5.55595247 17.5033366,5.15515411 L18.2012537,3.09664122 L19.7807297,3.15135772 L19.8360981,3.20607422 C19.8360981,3.20607422 19.6705841,3.60687258 19.6705841,4.99120002 L19.6705841,5.33728188 L22.2788081,5.33728188 L22.1503377,6.44841766 L19.9093971,6.44841766 L19.6891059,6.66708824 L19.6891059,10.7110284 C19.6891059,11.7674477 19.8910723,12.3867212 20.8461272,12.3867212 C21.65419,12.3867212 22.4074755,11.9679446 22.4074755,11.9679446 L22.7012628,12.4414377 C22.7012628,12.4414377 21.4707454,13.8441343 19.5787633,13.8441343 C18.2564251,13.8441343 17.3380197,13.1517751 17.3380197,11.4577132 L17.3380197,7.68716013 Z" id="Fill-25"></path>
                        <path d="M25.3824311,8.45223359 L28.3945879,8.06960892 C28.3945879,8.06960892 28.3396137,5.99311776 27.0170784,5.99311776 C26.0435017,5.99311776 25.4559272,7.12242723 25.3824311,8.45223359 M27.4028835,5.11863084 C29.0741803,5.11863084 30.6170068,6.08418165 30.6905029,8.3611697 C30.6905029,8.3611697 29.8455936,8.65253506 29.4783102,8.70725156 L25.5843975,9.2901777 L25.4192777,9.50865287 C25.6212441,10.9295231 26.3926573,12.204613 28.2661176,12.204613 C29.5884558,12.204613 30.4518869,11.4761019 30.4518869,11.4761019 L30.6721781,12.0043115 C30.6721781,12.0043115 29.6802766,13.8441538 27.366037,13.8441538 C24.6659921,13.8441538 23.2149865,11.8038146 23.2149865,9.63625956 C23.2149865,7.14060092 25.0151478,5.11863084 27.4028835,5.11863084" id="Fill-27"></path>
                        <path d="M31.7737325,13.0608285 C32.526821,12.9697646 32.8206083,12.5326189 32.8206083,11.8768025 L32.8206083,7.57784438 C32.8206083,6.83096416 32.8022835,6.37564472 32.2696833,6.37564472 L31.5349196,6.37564472 L31.5349196,5.79271858 C33.7023641,5.44663672 35.2451906,4.86371058 35.2451906,4.86371058 L35.3001649,4.91842708 C35.3001649,4.91842708 35.135045,5.31903002 35.0432242,7.14069863 C35.0432242,7.14069863 36.2002455,5.11872855 37.6512511,5.11872855 C38.4226643,5.11872855 38.7899477,5.66511188 38.7899477,6.21169063 C38.7899477,6.79461677 38.3676901,7.37754291 37.6146016,7.37754291 C37.02683,7.37754291 36.9348122,7.01309194 36.475708,7.01309194 C35.8881335,7.01309194 35.1716945,7.59601808 35.1716945,7.59601808 L35.1716945,11.8768025 C35.1716945,12.4231859 35.0798737,12.860527 35.0798737,12.860527 L36.7328457,13.0242857 L36.6595467,13.5708644 L31.7737325,13.680102 L31.7737325,13.0608285 Z" id="Fill-29"></path>
                        <path d="M39.7344412,13.0608285 C40.4875297,12.9697646 40.7813169,12.5326189 40.7813169,11.8768025 L40.7813169,7.55967069 C40.7813169,6.81279047 40.7629922,6.35727561 40.2303919,6.35727561 L39.4956282,6.35727561 L39.4956282,5.77434947 C41.6630728,5.42826761 43.2058992,4.86371058 43.2058992,4.86371058 L43.2608735,4.91842708 C43.2608735,4.91842708 43.0957536,5.31903002 43.0039328,6.94020174 C43.6466787,6.10245305 44.7670505,5.11872855 46.2732274,5.11872855 C47.5405913,5.11872855 48.4587997,5.81089227 48.4587997,7.57784438 L48.4587997,11.8768025 C48.4587997,12.4231859 48.3671759,12.8421579 48.3671759,12.8421579 L49.8365063,13.0242857 L49.7630102,13.5708644 L45.2813259,13.680102 L45.2813259,13.0608285 C45.905747,12.9697646 46.1079105,12.5326189 46.1079105,11.8768025 L46.1079105,8.2881818 C46.1079105,7.01309194 45.7957985,6.72172658 45.0793595,6.72172658 C44.4732632,6.72172658 43.7201747,6.94020174 43.1324032,7.3957166 L43.1324032,11.8768025 C43.1324032,12.4231859 43.0405823,12.8421579 43.0405823,12.8421579 L44.1976037,13.0242857 L44.1241076,13.5708644 L39.7344412,13.680102 L39.7344412,13.0608285 Z" id="Fill-31"></path>
                        <path d="M54.9421584,11.8221056 L54.9421584,9.54511751 L54.4462077,9.63618139 C53.4911528,9.80013548 52.682893,10.3101714 52.682893,11.3486124 C52.682893,11.9131694 52.9400307,12.4050317 53.5646489,12.4050317 C54.0604026,12.4050317 54.5748751,12.13184 54.9421584,11.8221056 M54.3175403,8.8166064 L54.9604832,8.72534709 C54.9604832,8.12424726 54.9604832,7.24995576 54.8686623,6.81281001 C54.7583197,6.28460037 54.4828572,5.93851851 54.0054283,5.93851851 C52.9585525,5.93851851 52.2421136,7.8875984 52.2421136,7.8875984 L51.3972043,7.8875984 L50.9930744,6.28460037 C50.9930744,6.28460037 52.4809266,5.11874809 54.8869871,5.11874809 C56.8156187,5.11874809 57.2932447,5.8472592 57.2932447,7.7234489 L57.2932447,11.8221056 C57.2932447,12.3684889 57.3848684,12.6782234 57.7340241,12.6782234 C58.1196322,12.6782234 58.5422839,12.3684889 58.5422839,12.3684889 L58.8360711,12.8603511 C58.8360711,12.8603511 57.9359905,13.8440756 56.5584809,13.8440756 C55.6217508,13.8440756 55.0156545,13.4069299 55.0156545,12.6237023 L55.0156545,12.3321415 C55.0156545,12.3321415 54.0604026,13.8440756 52.44408,13.8440756 C51.3603577,13.8440756 50.2951572,13.1700856 50.2951572,11.8039319 C50.2951572,9.96408956 52.44408,9.08979806 54.3175403,8.8166064" id="Fill-33"></path>
                        <path d="M60.2495405,7.68716013 C60.2495405,7.15875508 60.3045148,6.50313416 60.3045148,6.50313416 L59.1289717,6.50313416 L59.1289717,5.71990655 C59.1289717,5.71990655 59.974078,5.55595247 60.4148574,5.15515411 L61.1127746,3.09664122 L62.6922506,3.15135772 L62.7476189,3.20607422 C62.7476189,3.20607422 62.582105,3.60687258 62.582105,4.99120002 L62.582105,5.33728188 L65.190329,5.33728188 L65.0618586,6.44841766 L62.820918,6.44841766 L62.6006268,6.66708824 L62.6006268,10.7110284 C62.6006268,11.7674477 62.8025932,12.3867212 63.7576481,12.3867212 C64.5657108,12.3867212 65.3189964,11.9679446 65.3189964,11.9679446 L65.6127836,12.4414377 C65.6127836,12.4414377 64.3822662,13.8441343 62.4902841,13.8441343 C61.1679459,13.8441343 60.2495405,13.1517751 60.2495405,11.4577132 L60.2495405,7.68716013 Z" id="Fill-35"></path>
                        <path d="M66.8981177,2.25873619 C66.8981177,1.49368228 67.4675645,0.965472638 68.2573024,0.965472638 C69.0470404,0.965472638 69.6164872,1.49368228 69.6164872,2.25873619 C69.6164872,3.00561641 69.0470404,3.53382605 68.2573024,3.53382605 C67.4675645,3.53382605 66.8981177,3.00561641 66.8981177,2.25873619 L66.8981177,2.25873619 Z M66.2002005,13.0607503 C66.953289,12.9696864 67.2470762,12.5325407 67.2470762,11.8767244 L67.2470762,7.55959252 C67.2470762,6.8127123 67.2287515,6.35739286 66.6961512,6.35739286 L65.9613875,6.35739286 L65.9613875,5.77446672 C68.1288321,5.42838486 69.7085051,4.86363241 69.7085051,4.86363241 L69.7634794,4.91834891 C69.7634794,4.91834891 69.5981625,5.51944875 69.5981625,6.99484008 L69.5981625,11.8767244 C69.5981625,12.4233031 69.5063416,12.8604489 69.5063416,12.8604489 L70.975672,13.0244029 L70.9021759,13.5707863 L66.2002005,13.6802193 L66.2002005,13.0607503 Z" id="Fill-37"></path>
                        <path d="M76.2467593,13.0425962 C77.7895857,13.0425962 78.1018948,10.8021509 78.0652453,9.50869195 C78.0469205,7.86934653 77.4589519,5.92026665 75.9896215,5.92026665 C74.6856081,5.92026665 74.1161613,7.48672187 74.1161613,9.18078378 C74.1161613,10.9477359 74.7405824,13.0425962 76.2467593,13.0425962 M76.191785,5.11866993 C78.9468041,5.11866993 80.618298,6.79455815 80.618298,9.16261009 C80.618298,11.4577718 79.0752745,13.8441929 75.952972,13.8441929 C73.2895767,13.8441929 71.5814334,12.0954145 71.5814334,9.65447234 C71.5814334,7.50509098 72.9222934,5.11866993 76.191785,5.11866993" id="Fill-39"></path>
                        <path d="M81.6828876,13.0608285 C82.4359761,12.9697646 82.7297633,12.5326189 82.7297633,11.8768025 L82.7297633,7.55967069 C82.7297633,6.81279047 82.7114386,6.35727561 82.1788383,6.35727561 L81.4440746,6.35727561 L81.4440746,5.77434947 C83.6115192,5.42826761 85.1543457,4.86371058 85.1543457,4.86371058 L85.2093199,4.91842708 C85.2093199,4.91842708 85.0442001,5.31903002 84.9523792,6.94020174 C85.5951251,6.10245305 86.7154969,5.11872855 88.2216738,5.11872855 C89.4890378,5.11872855 90.4072461,5.81089227 90.4072461,7.57784438 L90.4072461,11.8768025 C90.4072461,12.4231859 90.3156223,12.8421579 90.3156223,12.8421579 L91.7849527,13.0242857 L91.7114566,13.5708644 L87.2297724,13.680102 L87.2297724,13.0608285 C87.8541934,12.9697646 88.0563569,12.5326189 88.0563569,11.8768025 L88.0563569,8.2881818 C88.0563569,7.01309194 87.7442449,6.72172658 87.0278059,6.72172658 C86.4217096,6.72172658 85.6686211,6.94020174 85.0808496,7.3957166 L85.0808496,11.8768025 C85.0808496,12.4231859 84.9890288,12.8421579 84.9890288,12.8421579 L86.1460501,13.0242857 L86.072554,13.5708644 L81.6828876,13.680102 L81.6828876,13.0608285 Z" id="Fill-41"></path>
                        <path d="M96.8905851,11.8221056 L96.8905851,9.54511751 L96.3946344,9.63618139 C95.4395795,9.80013548 94.6313197,10.3101714 94.6313197,11.3486124 C94.6313197,11.9131694 94.8884575,12.4050317 95.5130756,12.4050317 C96.0088293,12.4050317 96.5233018,12.13184 96.8905851,11.8221056 M96.265967,8.8166064 L96.9089099,8.72534709 C96.9089099,8.12424726 96.9089099,7.24995576 96.8170891,6.81281001 C96.7067464,6.28460037 96.4312839,5.93851851 95.953855,5.93851851 C94.9069793,5.93851851 94.1905403,7.8875984 94.1905403,7.8875984 L93.345631,7.8875984 L92.9415011,6.28460037 C92.9415011,6.28460037 94.4293533,5.11874809 96.8354138,5.11874809 C98.7640454,5.11874809 99.2416714,5.8472592 99.2416714,7.7234489 L99.2416714,11.8221056 C99.2416714,12.3684889 99.3332952,12.6782234 99.6824508,12.6782234 C100.068059,12.6782234 100.490711,12.3684889 100.490711,12.3684889 L100.784498,12.8603511 C100.784498,12.8603511 99.8844172,13.8440756 98.5069077,13.8440756 C97.5701775,13.8440756 96.9640812,13.4069299 96.9640812,12.6237023 L96.9640812,12.3321415 C96.9640812,12.3321415 96.0088293,13.8440756 94.3925067,13.8440756 C93.3087845,13.8440756 92.243584,13.1700856 92.243584,11.8039319 C92.243584,9.96408956 94.3925067,9.08979806 96.265967,8.8166064" id="Fill-43"></path>
                        <path d="M101.224528,13.0608285 C101.97742,12.9697646 102.271404,12.5326189 102.271404,11.8768025 L102.271404,2.7141338 C102.271404,1.96725358 102.253079,1.51193414 101.720479,1.51193414 L101.04069,1.51193414 L101.04069,0.929007999 C103.979548,0.346081861 104.750961,0 104.750961,0 L104.806132,0.0547164997 C104.806132,0.0547164997 104.62249,0.710337416 104.62249,2.11303397 L104.62249,11.8768025 C104.62249,12.4231859 104.530473,12.860527 104.530473,12.860527 L106,13.0242857 L105.926504,13.5708644 L101.224528,13.680102 L101.224528,13.0608285 Z" id="Fill-45"></path>
                        <path d="M0.553033335,28.4565273 L1.16050894,28.4565273 C1.28937337,30.0083263 2.35713538,30.4831873 3.16736557,30.4831873 C3.84853429,30.4831873 4.32694842,30.1179547 4.32694842,29.4789442 C4.32694842,27.6713455 0.424365943,27.9271451 0.424365943,25.097325 C0.424365943,23.4538759 1.74965978,22.5045446 3.55376183,22.5045446 C4.6398486,22.5045446 6.09420391,22.8514081 6.09420391,22.8514081 L5.67096109,24.914611 L5.04496369,24.914611 C4.95294582,23.5087878 4.08754431,23.2713573 3.55376183,23.2713573 C2.89111491,23.2713573 2.46767506,23.654959 2.46767506,24.2574267 C2.46767506,26.1013728 6.35212981,25.6814237 6.35212981,28.5843294 C6.35212981,30.3917326 4.8977745,31.25 3.09367246,31.25 C1.98906389,31.25 0.221611356,30.9031365 0.221611356,29.9719789 C0.221611356,29.5338561 0.553033335,28.4565273 0.553033335,28.4565273" id="Fill-47"></path>
                        <path d="M11.7645148,22.5045446 C12.8689263,22.5045446 14.7283967,22.8697772 14.7283967,23.9652797 C14.7283967,24.4217717 14.37865,24.8598945 13.8263457,24.8598945 C12.7771055,24.8598945 12.813755,23.3079001 11.5067859,23.3079001 C10.2549881,23.3079001 9.57381943,24.7139187 9.57381943,26.3204342 C9.57381943,28.1645757 10.4758704,29.6069417 12.3719904,29.6069417 C13.6423099,29.6069417 14.544361,28.9677357 14.544361,28.9677357 L14.7652433,29.4973133 C14.7652433,29.4973133 13.7711744,31.25 11.3779215,31.25 C8.81915463,31.25 7.38312408,29.241709 7.38312408,27.105616 C7.38312408,24.9329801 8.91117251,22.5045446 11.7645148,22.5045446" id="Fill-49"></path>
                        <path d="M15.575434,30.4648769 C16.3302959,30.3736175 16.6246743,29.9354947 16.6246743,29.2781151 L16.6246743,20.0945368 C16.6246743,19.3460933 16.6063495,18.8896013 16.07237,18.8896013 L15.3912013,18.8896013 L15.3912013,18.3053073 C18.3369555,17.7210132 19.109945,17.3741497 19.109945,17.3741497 L19.1653134,17.4290616 C19.1653134,17.4290616 18.9810806,18.0862459 18.9810806,19.4920691 L18.9810806,22.6687527 C18.9810806,23.6001057 18.9075845,24.1111187 18.9075845,24.3301802 C19.5519067,23.4906727 20.6196687,22.5046032 22.1291953,22.5046032 C23.3995149,22.5046032 24.3198907,23.1983303 24.3198907,24.9693861 L24.3198907,29.2781151 C24.3198907,29.8258663 24.2278728,30.2458154 24.2278728,30.2458154 L25.7007499,30.428334 L25.6270568,30.9760853 L21.1351264,31.0857137 L21.1351264,30.4648769 C21.7611238,30.3736175 21.9634843,29.9354947 21.9634843,29.2781151 L21.9634843,25.6812869 C21.9634843,24.4032658 21.6505841,24.1111187 20.9325689,24.1111187 C20.3248962,24.1111187 19.5702314,24.3301802 18.9810806,24.7866721 L18.9810806,29.2781151 C18.9810806,29.8258663 18.8890627,30.2641845 18.8890627,30.2641845 L20.0488426,30.428334 L19.9753465,30.9760853 L15.575434,31.0857137 L15.575434,30.4648769 Z" id="Fill-51"></path>
                        <path d="M31.0025164,30.4467422 C32.5488895,30.4467422 32.8619868,28.2010208 32.8249432,26.9046305 C32.8066184,25.2615722 32.2174676,23.3079978 30.7445905,23.3079978 C29.4378184,23.3079978 28.8669923,24.8781659 28.8669923,26.5759407 C28.8669923,28.3469966 29.4929897,30.4467422 31.0025164,30.4467422 M30.947345,22.5044469 C33.7086694,22.5044469 35.383907,24.1842434 35.383907,26.557767 C35.383907,28.858205 33.8375339,31.2499023 30.7079409,31.2499023 C28.0386344,31.2499023 26.3265502,29.497411 26.3265502,27.0508018 C26.3265502,24.8963396 27.6703659,22.5044469 30.947345,22.5044469" id="Fill-53"></path>
                        <path d="M41.05408,30.4467422 C42.6004532,30.4467422 42.9135504,28.2010208 42.8765068,26.9046305 C42.858182,25.2615722 42.2690312,23.3079978 40.7961541,23.3079978 C39.489382,23.3079978 38.9185559,24.8781659 38.9185559,26.5759407 C38.9185559,28.3469966 39.5445533,30.4467422 41.05408,30.4467422 M40.9989087,22.5044469 C43.760233,22.5044469 45.4354707,24.1842434 45.4354707,26.557767 C45.4354707,28.858205 43.8890975,31.2499023 40.7595046,31.2499023 C38.090198,31.2499023 36.3781139,29.497411 36.3781139,27.0508018 C36.3781139,24.8963396 37.7219295,22.5044469 40.9989087,22.5044469" id="Fill-55"></path>
                        <path d="M46.3008525,30.4648769 C47.0557143,30.3736175 47.3500927,29.9354947 47.3500927,29.2781151 L47.3500927,20.0945368 C47.3500927,19.3460933 47.3317679,18.8896013 46.7977884,18.8896013 L46.1166197,18.8896013 L46.1166197,18.3053073 C49.0623739,17.7210132 49.8353634,17.3741497 49.8353634,17.3741497 L49.8907318,17.4290616 C49.8907318,17.4290616 49.706499,18.0862459 49.706499,19.4920691 L49.706499,29.2781151 C49.706499,29.8258663 49.6144811,30.2641845 49.6144811,30.2641845 L51.0873582,30.428334 L51.0136651,30.9760853 L46.3008525,31.0857137 L46.3008525,30.4648769 Z" id="Fill-57"></path>
                    </g>
                    <g id="Group-92">
                        <mask id="mask-2" fill="white">
                            <use xlink:href="#path-1"></use>
                        </mask>
                        <use id="Clip-91" fill="#FFFFFF" xlink:href="#path-1"></use>
                    </g>
                </g>
                <g id="Group-70" transform="translate(40.000000, 62.000000)" fill="#FFFFFF">
                    <path d="M3.27425243,0.581953626 C3.99619841,0.581953626 4.79374495,0.733611152 5.23848888,0.775727257 L4.98668389,2.14163363 L4.65927833,2.14163363 C4.65100952,1.21409067 3.87866316,1.00351014 3.24885536,1.00351014 C1.88056396,1.00351014 1.21728716,2.13313132 1.21728716,3.41480549 C1.21728716,4.85644176 2.08216545,5.93564225 3.43372236,5.93564225 C3.63512698,5.93564225 3.87866316,5.91053077 4.12200247,5.85160777 L4.12200247,4.76390497 C4.12200247,4.35915535 4.08853347,4.25791851 3.34965611,4.14837709 L3.34965611,3.895285 L5.47375625,3.895285 L5.51549406,4.05544484 C5.51549406,4.05544484 5.18828538,4.20730009 5.18828538,4.85644176 L5.18828538,6.18873434 C4.61754052,6.23065272 3.87866316,6.40801491 3.15671718,6.40801491 C1.45235765,6.40801491 0,5.42135122 0,3.61708143 C0,2.09951753 1.01588254,0.581953626 3.27425243,0.581953626" id="Fill-59"></path>
                    <path d="M6.12917768,6.04534186 C6.47351461,6.00322575 6.60758748,5.80075208 6.60758748,5.4972393 L6.60758748,3.50750046 C6.60758748,3.16187158 6.59912179,2.95109332 6.35597936,2.95109332 L6.01991124,2.95109332 L6.01991124,2.68119433 C7.01079047,2.5210345 7.71580508,2.25133324 7.71580508,2.25133324 L7.74100527,2.27644472 C7.74100527,2.27644472 7.6654047,2.46211149 7.62347002,3.30522452 C7.62347002,3.30522452 8.15228019,2.36937697 8.81555699,2.36937697 C9.16835961,2.36937697 9.33609835,2.62227133 9.33609835,2.87536342 C9.33609835,3.14506468 9.14296255,3.41496367 8.79882249,3.41496367 C8.53008612,3.41496367 8.48815144,3.24610379 8.27828113,3.24610379 C8.00974163,3.24610379 7.6821392,3.51580505 7.6821392,3.51580505 L7.6821392,5.4972393 C7.6821392,5.75033139 7.64020452,5.95260733 7.64020452,5.95260733 L8.39581638,6.02853496 L8.36234738,6.28142932 L6.12917768,6.33204774 L6.12917768,6.04534186 Z" id="Fill-61"></path>
                    <path d="M11.897028,6.03691863 C12.6022395,6.03691863 12.744778,4.99983425 12.7280435,4.401311 C12.7197747,3.64243018 12.4510383,2.74039416 11.7794927,2.74039416 C11.1833508,2.74039416 10.9230801,3.46546345 10.9230801,4.24945575 C10.9230801,5.06725956 11.2083541,6.03691863 11.897028,6.03691863 M11.8716309,2.36925833 C13.1310496,2.36925833 13.8949303,3.14514377 13.8949303,4.24115116 C13.8949303,5.30354476 13.1897188,6.40785673 11.7627582,6.40785673 C10.5452742,6.40785673 9.76465903,5.59855522 9.76465903,4.46853859 C9.76465903,3.47376803 10.3773386,2.36925833 11.8716309,2.36925833" id="Fill-63"></path>
                    <path d="M14.7517367,3.2124109 C14.5838011,2.78254981 14.2650581,2.72323135 14.2650581,2.72323135 L14.2650581,2.47053471 L14.6594016,2.47053471 C15.4065478,2.47053471 15.8597574,2.43672319 15.8597574,2.43672319 L15.8936201,2.47053471 C15.8936201,2.47053471 15.7172188,2.82446818 15.8768856,3.2460247 L16.4224303,4.72997481 C16.4728307,4.88163233 16.5314999,5.09260832 16.5736314,5.25276816 L17.1611108,3.9206733 C17.2199769,3.79412726 17.2367114,3.60035362 17.1611108,3.39787995 L17.0855102,3.2124109 C16.9093058,2.79085439 16.6405694,2.72323135 16.6405694,2.72323135 L16.6405694,2.47053471 L16.9931752,2.47053471 C17.7403214,2.47053471 18.1937278,2.43672319 18.1937278,2.43672319 L18.2273937,2.47053471 C18.2273937,2.47053471 18.0509924,2.82446818 18.2104623,3.2460247 L18.7562039,4.71316791 C18.8064074,4.86482544 18.8654703,5.07580142 18.9072081,5.23596126 L19.7466894,3.33045464 C19.9063562,2.96782113 19.6460855,2.80766129 19.3019454,2.72323135 L19.3019454,2.47053471 L20.5190357,2.47053471 L20.5609704,2.60538534 C20.5609704,2.60538534 20.4688322,2.65600376 20.2924309,3.05225107 L18.8064074,6.40789628 L18.3029943,6.29835486 L17.4633162,4.19037456 L16.4810995,6.40789628 L15.9690238,6.29835486 L14.7517367,3.2124109 Z" id="Fill-65"></path>
                    <path d="M21.3173304,1.0455867 C21.3173304,0.6914555 21.5776011,0.447063451 21.9386725,0.447063451 C22.2997439,0.447063451 22.5600146,0.6914555 22.5600146,1.0455867 C22.5600146,1.39141331 22.2997439,1.63560763 21.9386725,1.63560763 C21.5776011,1.63560763 21.3173304,1.39141331 21.3173304,1.0455867 L21.3173304,1.0455867 Z M20.9983905,6.04534186 C21.3425306,6.00322575 21.4769972,5.80075208 21.4769972,5.4972393 L21.4769972,3.49899815 C21.4769972,3.15356699 21.4683346,2.94259101 21.2251922,2.94259101 L20.889321,2.94259101 L20.889321,2.67288975 C21.8798065,2.51272991 22.6019493,2.25133324 22.6019493,2.25133324 L22.6269526,2.27644472 C22.6269526,2.27644472 22.5515489,2.55484602 22.5515489,3.23760148 L22.5515489,5.4972393 C22.5515489,5.75033139 22.5094174,5.95260733 22.5094174,5.95260733 L23.180963,6.02853496 L23.147494,6.28142932 L20.9983905,6.33204774 L20.9983905,6.04534186 Z" id="Fill-67"></path>
                    <path d="M23.7355443,6.04534186 C24.0796843,6.00322575 24.214151,5.80075208 24.214151,5.4972393 L24.214151,3.49899815 C24.214151,3.15356699 24.2054884,2.94259101 23.962346,2.94259101 L23.6262779,2.94259101 L23.6262779,2.67288975 C24.6169602,2.51272991 25.3221717,2.25133324 25.3221717,2.25133324 L25.3473719,2.27644472 C25.3473719,2.27644472 25.2717713,2.46211149 25.2298366,3.21249 C25.5235763,2.82454728 26.035652,2.36937697 26.724129,2.36937697 C27.3033395,2.36937697 27.723277,2.68969665 27.723277,3.50750046 L27.723277,5.4972393 C27.723277,5.75033139 27.6811454,5.94410502 27.6811454,5.94410502 L28.3526911,6.02853496 L28.3192221,6.28142932 L26.2709194,6.33204774 L26.2709194,6.04534186 C26.5561933,6.00322575 26.6487253,5.80075208 26.6487253,5.4972393 L26.6487253,3.83632245 C26.6487253,3.24610379 26.5059898,3.11125316 26.1783874,3.11125316 C25.9013822,3.11125316 25.5574391,3.21249 25.2887027,3.42326825 L25.2887027,5.4972393 C25.2887027,5.75033139 25.2465711,5.94410502 25.2465711,5.94410502 L25.7755782,6.02853496 L25.7419123,6.28142932 L23.7355443,6.33204774 L23.7355443,6.04534186 Z" id="Fill-69"></path>
                    <path d="M31.2665414,3.76043437 C31.2665414,3.27165027 31.0649399,2.74035461 30.5695988,2.74035461 C30.0996546,2.74035461 29.931719,3.19552492 29.931719,3.69300906 C29.931719,4.19879778 30.1079235,4.64586123 30.6032646,4.64586123 C31.0901401,4.64586123 31.2665414,4.2326093 31.2665414,3.76043437 M30.0238572,6.43312639 C29.872853,6.57647934 29.679914,6.82106911 29.679914,7.1498911 C29.679914,7.63056835 30.1331236,7.90877192 30.6369305,7.90877192 C31.1155372,7.90877192 31.7449512,7.65567983 31.7449512,7.20901183 C31.7449512,6.8125668 31.2750071,6.71132996 30.5782613,6.55967244 C30.3933943,6.51755633 30.2004554,6.48374481 30.0238572,6.43312639 M29.9988539,4.94937401 C29.3777087,4.80602107 28.8823675,4.40127145 28.8823675,3.71831827 C28.8823675,2.84139372 29.7049173,2.36941651 30.5865301,2.36941651 C31.123806,2.36941651 31.3336763,2.53788094 31.8038173,2.53788094 L32.2068234,2.53788094 C32.4753629,2.53788094 32.7608338,2.42833952 32.7608338,2.42833952 L32.6684987,3.0859835 L32.3243587,3.0859835 C32.1394917,3.0859835 32.0304221,3.06067429 32.0304221,3.06067429 C32.0304221,3.06067429 32.315893,3.27165027 32.315893,3.75193206 C32.315893,4.56143129 31.4931462,5.0166016 30.5865301,5.0166016 C30.4522604,5.0166016 30.309525,5.00829701 30.183524,4.99129239 C30.1331236,5.05061085 30.05772,5.17695917 30.05772,5.27799827 C30.05772,5.48897426 30.5528643,5.56470416 31.0482054,5.65743868 C31.8038173,5.80079162 32.6684987,6.01156988 32.6684987,6.77025297 C32.6684987,7.66418214 31.4931462,8.30501922 30.4774606,8.30501922 C29.7385832,8.30501922 28.7648322,7.96769492 28.7648322,7.31005094 C28.7648322,6.7957599 29.3438459,6.54286554 29.7974493,6.37400566 C29.369243,6.25615966 29.0501062,6.07049288 29.0501062,5.73336631 C29.0501062,5.27799827 29.6966485,5.06741775 29.9988539,4.94937401" id="Fill-71"></path>
                    <path d="M36.6232743,6.02009197 C36.9756832,5.97797586 37.1857504,5.77550219 37.1857504,5.47198941 L37.1857504,1.12157364 L36.4638044,1.12157364 C35.9265285,1.12157364 35.6747235,1.29003807 35.3386554,2.14165341 L35.0114467,2.14165341 L35.2717174,0.632394088 C35.2717174,0.632394088 35.4898565,0.683012506 35.8341935,0.683012506 L39.9644647,0.683012506 C40.3086048,0.683012506 40.5688755,0.632394088 40.5688755,0.632394088 L40.3086048,2.14165341 L39.9811992,2.14165341 C39.9811992,1.29003807 39.7041941,1.12157364 39.0745831,1.12157364 L38.4113063,1.12157364 L38.3105056,1.22261275 L38.3105056,5.47198941 C38.3105056,5.7250815 38.2685709,5.92735744 38.2685709,5.92735744 L39.1080521,6.00328507 L39.0745831,6.28148864 L36.6232743,6.33190933 L36.6232743,6.02009197 Z" id="Fill-73"></path>
                    <path d="M42.4751515,6.03691863 C43.180363,6.03691863 43.3229015,4.99983425 43.306167,4.401311 C43.2978982,3.64243018 43.0291619,2.74039416 42.3576162,2.74039416 C41.7614743,2.74039416 41.5012036,3.46546345 41.5012036,4.24945575 C41.5012036,5.06725956 41.7864776,6.03691863 42.4751515,6.03691863 M42.4497544,2.36925833 C43.7091732,2.36925833 44.4730538,3.14514377 44.4730538,4.24115116 C44.4730538,5.30354476 43.7678423,6.40785673 42.3408817,6.40785673 C41.1235946,6.40785673 40.3427825,5.59855522 40.3427825,4.46853859 C40.3427825,3.47376803 40.9554621,2.36925833 42.4497544,2.36925833" id="Fill-75"></path>
                    <path d="M47.5546233,3.76043437 C47.5546233,3.27165027 47.3530218,2.74035461 46.8578775,2.74035461 C46.3877365,2.74035461 46.2198009,3.19552492 46.2198009,3.69300906 C46.2198009,4.19879778 46.3960053,4.64586123 46.8913465,4.64586123 C47.3782219,4.64586123 47.5546233,4.2326093 47.5546233,3.76043437 M46.311939,6.43312639 C46.1609348,6.57647934 45.9679959,6.82106911 45.9679959,7.1498911 C45.9679959,7.63056835 46.4212055,7.90877192 46.9250123,7.90877192 C47.403619,7.90877192 48.0330331,7.65567983 48.0330331,7.20901183 C48.0330331,6.8125668 47.5630889,6.71132996 46.8663431,6.55967244 C46.6814762,6.51755633 46.4885372,6.48374481 46.311939,6.43312639 M46.2869357,4.94937401 C45.6657905,4.80602107 45.1704493,4.40127145 45.1704493,3.71831827 C45.1704493,2.84139372 45.9929992,2.36941651 46.874612,2.36941651 C47.4118878,2.36941651 47.6217581,2.53788094 48.0918991,2.53788094 L48.4949052,2.53788094 C48.7634447,2.53788094 49.0489156,2.42833952 49.0489156,2.42833952 L48.9565805,3.0859835 L48.6124405,3.0859835 C48.4275735,3.0859835 48.3185039,3.06067429 48.3185039,3.06067429 C48.3185039,3.06067429 48.6037779,3.27165027 48.6037779,3.75193206 C48.6037779,4.56143129 47.7812281,5.0166016 46.874612,5.0166016 C46.7403422,5.0166016 46.5976068,5.00829701 46.4716058,4.99129239 C46.4212055,5.05061085 46.3458018,5.17695917 46.3458018,5.27799827 C46.3458018,5.48897426 46.8409461,5.56470416 47.3362873,5.65743868 C48.0918991,5.80079162 48.9565805,6.01156988 48.9565805,6.77025297 C48.9565805,7.66418214 47.7812281,8.30501922 46.7655424,8.30501922 C46.026665,8.30501922 45.0529141,7.96769492 45.0529141,7.31005094 C45.0529141,6.7957599 45.6319277,6.54286554 46.0855311,6.37400566 C45.6573248,6.25615966 45.3381881,6.07049288 45.3381881,5.73336631 C45.3381881,5.27799827 45.9847304,5.06741775 46.2869357,4.94937401" id="Fill-77"></path>
                    <path d="M50.510113,3.91217099 L51.8868701,3.73520425 C51.8868701,3.73520425 51.8616699,2.77404749 51.2574561,2.77404749 C50.8123184,2.77404749 50.543582,3.29684084 50.510113,3.91217099 M51.4336605,2.36929788 C52.1975412,2.36929788 52.9027526,2.8161636 52.9362216,3.87005488 C52.9362216,3.87005488 52.5501469,4.00490551 52.3822113,4.03021472 L50.6024481,4.30011371 L50.5268475,4.40135055 C50.6193794,5.05899452 50.9717883,5.64901546 51.8282009,5.64901546 C52.4324148,5.64901546 52.8271521,5.31188889 52.8271521,5.31188889 L52.9279528,5.55628094 C52.9279528,5.55628094 52.4745463,6.40789628 51.416926,6.40789628 C50.1829043,6.40789628 49.5196275,5.46374414 49.5196275,4.46027355 C49.5196275,3.30514543 50.3423743,2.36929788 51.4336605,2.36929788" id="Fill-79"></path>
                    <path d="M54.0280394,3.55819797 C54.0280394,3.3136082 54.0532396,3.01009541 54.0532396,3.01009541 L53.5159638,3.01009541 L53.5159638,2.6474619 C53.5159638,2.6474619 53.9020385,2.57153428 54.1034431,2.38626296 L54.4225799,1.43341078 L55.1445258,1.45871999 L55.169726,1.4840292 C55.169726,1.4840292 55.0941255,1.66949825 55.0941255,2.3101376 L55.0941255,2.47049517 L56.2864093,2.47049517 L56.2275433,2.98478621 L55.2033919,2.98478621 L55.1025912,3.08602304 L55.1025912,4.95771814 C55.1025912,5.4468977 55.1947293,5.73340585 55.6314013,5.73340585 C56.0007416,5.73340585 56.3450785,5.53943449 56.3450785,5.53943449 L56.4793482,5.75871506 C56.4793482,5.75871506 55.9168722,6.40805446 55.0519939,6.40805446 C54.44778,6.40805446 54.0280394,6.08733932 54.0280394,5.30354476 L54.0280394,3.55819797 Z" id="Fill-81"></path>
                    <path d="M56.8995023,6.04534186 C57.2438392,6.00322575 57.378109,5.80075208 57.378109,5.4972393 L57.378109,1.25636496 C57.378109,0.910736069 57.3696433,0.699760085 57.126304,0.699760085 L56.8156329,0.699760085 L56.8156329,0.430058826 C58.158921,0.160159839 58.5113299,0 58.5113299,0 L58.536727,0.0253092091 C58.536727,0.0253092091 58.4526607,0.329019718 58.4526607,0.977963656 L58.4526607,2.44510687 C58.4526607,2.87536342 58.4191917,3.11125316 58.4191917,3.21249 C58.7129314,2.82454728 59.2000038,2.36937697 59.8882839,2.36937697 C60.4674944,2.36937697 60.887235,2.68969665 60.887235,3.50750046 L60.887235,5.4972393 C60.887235,5.75033139 60.8453003,5.94410502 60.8453003,5.94410502 L61.5168459,6.02853496 L61.4833769,6.28142932 L59.4348774,6.33204774 L59.4348774,6.04534186 C59.7205451,6.00322575 59.8126833,5.80075208 59.8126833,5.4972393 L59.8126833,3.83632245 C59.8126833,3.24610379 59.6699479,3.11125316 59.3425423,3.11125316 C59.0655371,3.11125316 58.7213971,3.21249 58.4526607,3.42326825 L58.4526607,5.4972393 C58.4526607,5.75033139 58.410726,5.95260733 58.410726,5.95260733 L58.9397331,6.02853496 L58.9058703,6.28142932 L56.8995023,6.33204774 L56.8995023,6.04534186 Z" id="Fill-83"></path>
                    <path d="M63.0032632,3.91217099 L64.3800203,3.73520425 C64.3800203,3.73520425 64.3548201,2.77404749 63.7506063,2.77404749 C63.3054686,2.77404749 63.0367322,3.29684084 63.0032632,3.91217099 M63.9268107,2.36929788 C64.6906914,2.36929788 65.3959029,2.8161636 65.4293719,3.87005488 C65.4293719,3.87005488 65.0432971,4.00490551 64.8753615,4.03021472 L63.0955983,4.30011371 L63.0199977,4.40135055 C63.1125297,5.05899452 63.4651354,5.64901546 64.3213511,5.64901546 C64.925565,5.64901546 65.3203023,5.31188889 65.3203023,5.31188889 L65.421103,5.55628094 C65.421103,5.55628094 64.9676966,6.40789628 63.9098793,6.40789628 C62.6758577,6.40789628 62.0127778,5.46374414 62.0127778,4.46027355 C62.0127778,3.30514543 62.8353276,2.36929788 63.9268107,2.36929788" id="Fill-85"></path>
                    <path d="M66.1349771,6.04534186 C66.4791171,6.00322575 66.6135838,5.80075208 66.6135838,5.4972393 L66.6135838,3.50750046 C66.6135838,3.16187158 66.6049212,2.95109332 66.3617788,2.95109332 L66.0257107,2.95109332 L66.0257107,2.68119433 C67.016393,2.5210345 67.7216045,2.25133324 67.7216045,2.25133324 L67.7468047,2.27644472 C67.7468047,2.27644472 67.6712041,2.46211149 67.6292694,3.30522452 C67.6292694,3.30522452 68.1580796,2.36937697 68.8213564,2.36937697 C69.1739622,2.36937697 69.3418978,2.62227133 69.3418978,2.87536342 C69.3418978,3.14506468 69.148762,3.41496367 68.8046219,3.41496367 C68.5358855,3.41496367 68.4941477,3.24610379 68.2840805,3.24610379 C68.0155411,3.24610379 67.6881355,3.51580505 67.6881355,3.51580505 L67.6881355,5.4972393 C67.6881355,5.75033139 67.6460039,5.95260733 67.6460039,5.95260733 L68.4016158,6.02853496 L68.3681468,6.28142932 L66.1349771,6.33204774 L66.1349771,6.04534186 Z" id="Fill-87"></path>
                </g>
            </g>
        </g>
    </g>
</svg>