<svg width="62" height="80" viewBox="0 0 62 80" xmlns="http://www.w3.org/2000/svg">
    <path d="M19.242 16.718a3.89 3.89 0 0 0-.232.004l-14.437-.035.006-1.89 14.355.039c3.711-.151 5.17 2.56 5.645 3.82-.656-.817-1.726-1.401-3.136-1.707a10.902 10.902 0 0 0-2.201-.23zm5.337-2.249c-.656-.818-1.726-1.402-3.136-1.705a10.794 10.794 0 0 0-2.201-.233c-.133 0-.215.004-.23.004L4.573 12.5l.006-1.89 14.355.039c3.711-.153 5.17 2.56 5.645 3.82zM21.44 8.577a10.77 10.77 0 0 0-2.2-.232c-.145 0-.227.003-.229.003L4.573 8.313l.006-1.89 14.353.039c3.708-.159 5.17 2.56 5.645 3.82-.654-.818-1.724-1.402-3.136-1.705zm7.92.846c-.059-2.332-.834-4.287-2.275-5.8-1.403-1.475-3.422-2.347-5.543-2.387l-14.83-.02C4.207 1.19 2.227 1.17.133.07L0 0v21.834h22.67c.739 0 1.331.055 1.87.175 2.183.479 3.736 1.688 4.664 2.62l.157.157V9.423zm13.627 3.114c-.013 0-1.148-.05-2.435.228-1.412.304-2.482.89-3.136 1.706.461-1.225 1.855-3.826 5.347-3.826.099 0 .2.002.303.006l14.351-.039.006 1.89-14.436.035zm0 4.186c-.013 0-1.148-.051-2.435.229-1.412.304-2.482.89-3.136 1.705.461-1.225 1.855-3.825 5.347-3.825.099 0 .2.002.303.005l14.351-.038.006 1.89-14.436.034zm.079-10.259 14.353-.038.006 1.89-14.438.035c-.01 0-1.146-.05-2.435.228-1.41.304-2.48.89-3.136 1.705.463-1.224 1.855-3.825 5.347-3.825.1 0 .2.002.303.005zm18.8-6.39c-2.096 1.099-4.075 1.12-6.58 1.145l-14.836.02c-2.12.043-4.14.912-5.544 2.387-1.44 1.514-2.2 3.463-2.258 5.797l-.005 15.37.155-.157c.93-.932 2.473-2.146 4.656-2.627.538-.12 1.132-.173 1.868-.173H62V.004l-.133.07zm-30.875 64.22c5.445 0 9.874 4.473 9.874 9.97 0 .682-.07 1.365-.207 2.036l-.01.051-.05.017c-2.978.982-9.506 3.592-9.572 3.617l-.035.015-.032-.015c-.066-.025-6.594-2.635-9.573-3.617l-.05-.017-.012-.051a10.195 10.195 0 0 1-.206-2.035 10.001 10.001 0 0 1 2.565-6.706 9.859 9.859 0 0 1 7.308-3.266zM.002 45.241l.18.197 19.256 22.365-.032.057a13.44 13.44 0 0 0-1.61 6.92l.007.152-.137-.066A31.172 31.172 0 0 1 5.287 64.091C1.831 58.92.003 52.876.003 46.61v-1.37zm61.99 0v1.368c0 6.266-1.827 12.31-5.283 17.48a31.171 31.171 0 0 1-12.38 10.777l-.137.066.008-.153a13.417 13.417 0 0 0-1.61-6.92l-.032-.056 3.294-3.826 15.982-18.561.159-.175zm-50.16-19.927.063.203 12.028 37.479-.06.038c-.5.324-.982.687-1.43 1.074-.323.276-.637.575-.934.884l-.07.074-.831-.967L.003 40.179V25.315h11.829zm50.16 0V40.18l-.561.655-20.865 24.233-.069-.074c-.297-.31-.61-.608-.934-.884a13.085 13.085 0 0 0-1.43-1.074l-.06-.039.022-.068 12.07-37.613h11.828zm-38.407 0c3.18 0 5.766 2.612 5.766 5.822v29.894l-.03.004-.049.006c-.764.1-1.526.268-2.267.506l-.086.03-11.638-36.262h8.304zm23.132 0-.082.258-11.559 36.004-.086-.03a10.126 10.126 0 0 0-.25-.075l-.016-.008a13.928 13.928 0 0 0-1.585-.36l-.047-.008c-.01-.002-.017-.004-.024-.004-.111-.02-.22-.035-.332-.05l-.078-.01-.013-.082V31.137c0-3.21 2.586-5.822 5.764-5.822h8.308z" fill="#FFF" fill-rule="evenodd"/>
</svg>
