<?xml version="1.0" encoding="UTF-8"?>
<svg width="162px" height="172px" viewBox="0 0 162 172" version="1.1" xmlns="http://www.w3.org/2000/svg" xmlns:xlink="http://www.w3.org/1999/xlink">
    <title>1579F19C-E2C9-430A-AA2F-5221098E5443</title>
    <defs>
        <path d="M70.817783,2.10233867 C70.817783,3.2779309 71.6974034,4.28026841 72.9248223,4.28026841 L72.9248223,4.28026841 C74.0855402,4.28026841 75,3.2779309 75,2.10233867 L75,2.10233867 C75,0.922513345 74.0855402,0 72.9248223,0 L72.9248223,0 C71.6974034,0 70.817783,0.922513345 70.817783,2.10233867 M29.4946798,2.10052449 L29.4946798,7.44904581 C28.3369397,6.91386108 26.5827609,6.41616951 24.8931989,6.41616951 L24.8931989,6.41616951 C20.3664589,6.41616951 17.766308,9.15770622 17.3771191,13.5837142 L17.3771191,13.5837142 C17.2726009,14.8702741 17.2726009,17.4022724 17.3771191,18.6516415 L17.3771191,18.6516415 C17.766308,23.0350161 20.6430897,26 25.3869059,26 L25.3869059,26 C28.7922341,26 31.6362608,24.461873 32.5522095,23.7806464 L32.5522095,23.7806464 C33.1152976,23.3912012 33.2213046,22.9966158 33.2213046,22.3553013 L33.2213046,22.3553013 L33.2213046,2.10052449 C33.2213046,1.03166684 32.4098741,0.173254719 31.3563545,0.173254719 L31.3563545,0.173254719 C30.3409497,0.173254719 29.4946798,1.03166684 29.4946798,2.10052449 M21.097193,18.1832793 C20.9959503,17.0784403 21.0293008,14.9770087 21.097193,14.0097454 L21.097193,14.0097454 C21.2428038,11.4097152 22.5068488,10.051495 25.1748918,10.051495 L25.1748918,10.051495 C27.0050026,10.051495 28.7591813,10.6958332 29.4946798,11.1608694 L29.4946798,11.1608694 L29.4946798,21.0720674 C28.7922341,21.6102757 26.9686743,22.3553013 25.4565847,22.3553013 L25.4565847,22.3553013 C22.750129,22.3553013 21.3121849,20.9299562 21.097193,18.1832793 M53.6169452,8.37548989 C53.0922698,8.73560572 52.8751936,9.093605 52.8751936,9.8371187 L52.8751936,9.8371187 L52.8751936,23.8520043 C52.8751936,24.9232809 53.7545162,25.7829025 54.7416326,25.7829025 L54.7416326,25.7829025 C55.7918768,25.7829025 56.6033073,24.9232809 56.6033073,23.8520043 L56.6033073,23.8520043 L56.6033073,11.0556467 C57.4049113,10.553722 59.0596339,10.051495 60.7771866,10.051495 L60.7771866,10.051495 C62.9586692,10.051495 64.8584587,11.2666969 64.8584587,14.1207131 L64.8584587,14.1207131 L64.8584587,23.8520043 C64.8584587,24.9232809 65.733017,25.7829025 66.7168579,25.7829025 L66.7168579,25.7829025 C67.8084925,25.7829025 68.5803192,24.9232809 68.5803192,23.8520043 L68.5803192,23.8520043 L68.5803192,13.9408064 C68.5803192,9.12384142 65.9780839,6.41616951 60.886767,6.41616951 L60.886767,6.41616951 C57.1994481,6.41616951 54.6338389,7.59357592 53.6169452,8.37548989 M37.7447691,7.48260824 C36.7972565,7.91287258 36.5125859,8.62614986 36.5125859,9.23511147 L36.5125859,9.23511147 C36.5125859,10.3399505 37.5342439,11.1608694 39.0799817,10.6586424 L39.0799817,10.6586424 C40.0635248,10.303062 41.4699051,9.87582133 42.9093382,9.87582133 L42.9093382,9.87582133 C45.6455711,9.87582133 46.8083734,10.9102094 46.8083734,13.3354731 L46.8083734,13.3354731 L46.8083734,14.5092512 C45.189979,14.1207131 43.9926351,13.908151 42.3444634,13.908151 L42.3444634,13.908151 C37.4285346,13.908151 35.2137015,16.7261859 35.2137015,19.8275361 L35.2137015,19.8275361 C35.2137015,23.3225645 37.6006472,26 42.4138444,26 L42.4138444,26 C46.0678128,26 48.7394291,24.6747375 49.7247588,24.0001628 L49.7247588,24.0001628 C50.2503275,23.6403493 50.3893874,23.2527184 50.3893874,22.6092872 L50.3893874,22.6092872 L50.3893874,13.3354731 C50.3893874,8.51881055 47.6132529,6.41616951 43.117779,6.41616951 L43.117779,6.41616951 C40.9812602,6.41616951 38.7649383,6.98310249 37.7447691,7.48260824 M38.8679676,19.6878438 C38.8679676,17.9731361 40.4116211,17.0070823 42.5546909,17.0070823 L42.5546909,17.0070823 C44.1382459,17.0070823 45.2611466,17.2238775 46.8083734,17.6124155 L46.8083734,17.6124155 L46.8083734,21.5764109 C46.4537261,21.8573073 45.1584151,22.6815523 42.7321634,22.6815523 L42.7321634,22.6815523 C40.2392107,22.6815523 38.8679676,21.6102757 38.8679676,19.6878438 M2.52094334,7.48260824 C1.57372851,7.91287258 1.2884623,8.62614986 1.2884623,9.23511147 L1.2884623,9.23511147 C1.2884623,10.3399505 2.30892921,11.1608694 3.85585818,10.6586424 L3.85585818,10.6586424 C4.83969905,10.303062 6.24786596,9.87582133 7.68372573,9.87582133 L7.68372573,9.87582133 C10.4253186,9.87582133 11.5830587,10.9102094 11.5830587,13.3354731 L11.5830587,13.3354731 L11.5830587,14.5092512 C9.96674872,14.1207131 8.77357367,13.908151 7.12212649,13.908151 L7.12212649,13.908151 C2.37205701,13.908151 0.145610831,16.5402319 0,19.5121702 L0,19.5121702 L0,20.1670911 C0.150672966,23.493098 2.53583198,26 7.19001866,26 L7.19001866,26 C10.8475602,26 13.5144122,24.6747375 14.5015286,24.0001628 L14.5015286,24.0001628 C15.0265018,23.6403493 15.1658594,23.2527184 15.1658594,22.6092872 L15.1658594,22.6092872 L15.1658594,13.3354731 C15.1658594,8.51881055 12.3897249,6.41616951 7.89573987,6.41616951 L7.89573987,6.41616951 C5.75237226,6.41616951 3.54141025,6.98310249 2.52094334,7.48260824 M3.64741732,19.6878438 C3.64741732,17.9731361 5.18928415,17.0070823 7.33265176,17.0070823 L7.33265176,17.0070823 C8.9126335,17.0070823 10.0394052,17.2238775 11.5830587,17.6124155 L11.5830587,17.6124155 L11.5830587,21.5764109 C11.2334736,21.8573073 9.93012268,22.6815523 7.506551,22.6815523 L7.506551,22.6815523 C5.01538492,22.6815523 3.64741732,21.6102757 3.64741732,19.6878438 M71.0628499,8.6663643 L71.0628499,23.9278978 C71.0628499,24.9991743 71.9424703,25.8587959 72.9248223,25.8587959 L72.9248223,25.8587959 C73.978342,25.8587959 74.7912614,24.9991743 74.7912614,23.9278978 L74.7912614,23.9278978 L74.7912614,8.6663643 C74.7912614,7.59780902 73.9449915,6.7393969 72.9248223,6.7393969 L72.9248223,6.7393969 C71.8713027,6.7393969 71.0628499,7.59780902 71.0628499,8.6663643" id="path-1"></path>
    </defs>
    <g id="AIS-M-Web-Designs" stroke="none" stroke-width="1" fill="none" fill-rule="evenodd">
        <g id="AIS-Mobile-Admission-Pop-up-Page" transform="translate(-28.000000, -80.000000)">
            <g id="Group" transform="translate(28.000000, 80.000000)">
                <path d="M19.2416534,16.7184849 C19.106872,16.7184849 19.0266449,16.7202304 19.0103527,16.7222252 L4.57343502,16.6870667 L4.57886577,14.7972356 L18.9335816,14.835885 C22.6452547,14.6847783 24.1031652,17.3964702 24.578603,18.6564408 C23.9227161,17.8385695 22.8531045,17.2545895 21.4428365,16.9486359 C20.5006008,16.7461629 19.638839,16.7184849 19.2416534,16.7184849 L19.2416534,16.7184849 Z M24.578603,14.469339 C23.9227161,13.6514678 22.8531045,13.0674878 21.4428365,12.7635289 C20.5006008,12.5590611 19.638839,12.5313832 19.2416534,12.5313832 C19.1085999,12.5313832 19.0266449,12.5351234 19.0120806,12.5351234 L4.57343502,12.5002143 L4.57886577,10.6101338 L18.9335816,10.6487832 C22.6452547,10.4959311 24.1031652,13.2093685 24.578603,14.469339 L24.578603,14.469339 Z M21.4408617,8.57667652 C20.4988728,8.37195936 19.637111,8.34453075 19.2416534,8.34453075 C19.0957636,8.34453075 19.0138086,8.34802166 19.0120806,8.34802166 L4.57343502,8.31311253 L4.57886577,6.4232814 L18.9318536,6.46193081 C22.639824,6.30334358 24.1011904,9.02226673 24.576875,10.2822373 C23.9227161,9.46436603 22.8531045,8.88038602 21.4408617,8.57667652 L21.4408617,8.57667652 Z M29.3606283,9.42272442 C29.3021243,7.09079399 28.5272545,5.13563291 27.0858831,3.62331918 C25.6827739,2.14766004 23.6640147,1.2764277 21.5430586,1.23603284 L6.71265819,1.21558606 C4.20735286,1.18990291 2.22660894,1.16970548 0.133053461,0.0698182761 L0,0 L0,21.8339204 L22.6709274,21.8339204 C23.4087693,21.8339204 24.0009683,21.8892763 24.5403409,22.0089648 C26.7232569,22.4877187 28.2764524,23.697071 29.203877,24.629145 L29.3606283,24.7857374 L29.3606283,9.42272442 Z M42.9881662,12.5369437 C42.9753299,12.5369437 41.8400555,12.4873228 40.5534607,12.7653492 C39.1409711,13.069308 38.0711126,13.6547842 37.4169537,14.4709099 C37.878074,13.2460979 39.2722965,10.6453671 42.7640242,10.6453671 C42.8625183,10.6453671 42.9644684,10.6473619 43.0666653,10.6508528 L57.4184189,10.6122034 L57.4238496,12.5020345 L42.9881662,12.5369437 Z M42.9881662,16.7232974 C42.9753299,16.7232974 41.8400555,16.6716817 40.5534607,16.9517029 C39.1409711,17.2556617 38.0711126,17.8413872 37.4169537,18.6572636 C37.878074,17.4324516 39.2722965,14.8317208 42.7640242,14.8317208 C42.8625183,14.8317208 42.9644684,14.8337156 43.0666653,14.8374559 L57.4184189,14.7985571 L57.4238496,16.6883883 L42.9881662,16.7232974 Z M43.0666653,6.46449912 L57.4201468,6.42584972 L57.4255776,8.31543149 L42.9881662,8.35058998 C42.9773047,8.35058998 41.8417835,8.30071978 40.5534607,8.57899548 C39.142699,8.88270498 38.0730874,9.46843045 37.4169537,10.2843069 C37.879802,9.05974418 39.2722965,6.4590134 42.7640242,6.4590134 C42.8642463,6.4590134 42.9644684,6.46075886 43.0666653,6.46449912 L43.0666653,6.46449912 Z M61.8669465,0.0736333462 C59.7711694,1.17302184 57.7919066,1.19321927 55.2861075,1.21915178 L40.4512638,1.23934921 C38.3317888,1.28173887 36.3108079,2.15097641 34.9074518,3.6263862 C33.4675616,5.14019603 32.7077498,7.08887399 32.6492458,9.42254987 L32.6440619,24.7930434 L32.7988384,24.6364509 C33.7284846,23.704377 35.271806,22.4900376 37.4552158,22.0092889 C37.9928604,21.8896005 38.5870342,21.8362394 39.3231481,21.8362394 L62,21.8362394 L62,0.0035657191 L61.8669465,0.0736333462 Z M30.992471,64.293132 C36.4370483,64.293132 40.8655809,68.7669874 40.8655809,74.264678 C40.8655809,74.9461542 40.7962154,75.6293759 40.6594591,76.2998807 L40.6485976,76.3514964 L40.5992271,76.3679535 C37.6207057,77.3496484 31.0926931,79.9596051 31.0270303,79.9852883 L30.992471,80 L30.9596396,79.9852883 C30.8939769,79.9596051 24.3659643,77.3496484 21.3874429,76.3679535 L21.3363444,76.3514964 L21.325236,76.2998807 C21.1884798,75.6293759 21.1191143,74.9461542 21.1191143,74.264678 C21.1191143,73.0416114 21.3363444,71.8464721 21.7648802,70.7136706 C22.2062524,69.5459599 22.8520183,68.483226 23.6836642,67.5586325 C25.5533245,65.4830349 28.2180965,64.293132 30.992471,64.293132 Z M0.00286348822,45.2416445 L0.181584649,45.4388811 L19.4375555,67.8036698 L19.4064521,67.8607711 C18.3467146,69.8094491 17.7848785,72.0231871 17.7848785,74.2646032 C17.7848785,74.4379021 17.7885812,74.6092062 17.79574,74.7805104 L17.8031455,74.9333625 L17.6663893,74.8670351 C12.6705898,72.4615462 8.38967488,68.7357437 5.28698666,64.0905842 C1.8305589,58.9207902 0.00286348822,52.8760236 0.00286348822,46.6100827 L0.00286348822,45.2416445 Z M61.9927672,45.2416944 L61.9927672,46.6101326 C61.9927672,52.8758241 60.1650718,58.9205907 56.7086441,64.0906341 C53.6062027,68.7355443 49.3252878,72.4615961 44.3292414,74.867085 L44.1924852,74.933163 L44.1998907,74.7803109 C44.2070495,74.6090067 44.2107523,74.4377026 44.2107523,74.264653 C44.2107523,72.023237 43.6508909,69.809499 42.5891786,67.860821 L42.5583221,67.8037196 L45.8523209,63.9781768 L61.8340411,45.4167387 L61.9927672,45.2416944 Z M11.831563,25.3152093 L11.895251,25.5179316 L23.922642,62.9966316 L23.86241,63.035281 C23.3625339,63.3594373 22.8811716,63.7222429 22.4323939,64.1089863 C22.1095109,64.3852672 21.7957615,64.6837404 21.4985511,64.9931849 L21.4291856,65.0667435 L20.5975398,64.0997603 L0.00288817346,40.1785228 L0.00288817346,25.3152093 L11.831563,25.3152093 Z M61.9927672,25.315309 L61.9927672,40.1786226 L61.4309311,40.8341663 L40.5664698,65.0668432 L40.4971043,64.9930353 C40.1998939,64.6835907 39.8861445,64.385367 39.5632615,64.1090861 C39.1164586,63.7223427 38.6348495,63.3612825 38.1332454,63.0353807 L38.0730134,62.996482 L38.0949832,62.9284092 L50.1643392,25.315309 L61.9927672,25.315309 Z M23.5850713,25.3153838 C26.7645306,25.3153838 29.3508036,27.927086 29.3508036,31.1372306 L29.3508036,61.0314217 L29.321675,61.0351619 L29.2723045,61.0406476 C28.5080494,61.1401387 27.7457691,61.309448 27.0052118,61.5470795 L26.9193071,61.5765029 L15.2807086,25.3153838 L23.5850713,25.3153838 Z M46.7169216,25.315309 L46.6349666,25.5731379 L35.0763483,61.5766775 L34.9904436,61.5470047 C34.9084886,61.5213215 34.8245588,61.4956384 34.740629,61.4717007 L34.7243367,61.4642202 C34.5545022,61.4145993 34.3886174,61.3702148 34.2061934,61.3243343 C33.954404,61.2614978 33.7065641,61.2063912 33.467611,61.1622561 C33.3580085,61.1383184 33.2503808,61.1198664 33.1392972,61.1031599 L33.0919016,61.0959288 C33.082768,61.0939339 33.0753625,61.0921885 33.0679569,61.0921885 C32.9568733,61.0719911 32.8472708,61.0572794 32.7361872,61.0423183 L32.6576881,61.0313468 L32.6448518,60.9503078 L32.6448518,31.1371558 C32.6448518,27.9270112 35.2313716,25.315309 38.4086093,25.315309 L46.7169216,25.315309 Z" id="Combined-Shape" fill="#FFFFFF"></path>
                <g id="Group-4" transform="translate(0.000000, 92.000000)">
                    <g id="Group-89" transform="translate(0.000000, 32.000000)" fill="#FFFFFF">
                        <path d="M1.43160644,3.46941879 C1.43160644,2.29429598 2.30189306,1.48296597 3.50885111,1.48296597 C4.71580917,1.48296597 5.58609579,2.29429598 5.58609579,3.46941879 C5.58609579,4.61662681 4.71580917,5.42795682 3.50885111,5.42795682 C2.30189306,5.42795682 1.43160644,4.61662681 1.43160644,3.46941879 L1.43160644,3.46941879 Z M0.364978334,20.0613125 C1.51592486,19.9214384 1.96492049,19.2499825 1.96492049,18.2426486 L1.96492049,11.6115341 C1.96492049,10.4643261 1.93691472,9.76495543 1.12294077,9.76495543 L0,9.76495543 L0,8.86958088 C3.31250963,8.33799914 5.72672688,7.47053939 5.72672688,7.47053939 L5.81074417,7.55458393 C5.81074417,7.55458393 5.55809002,8.47787327 5.55809002,10.7440744 L5.55809002,18.2426486 C5.55809002,19.0821936 5.41776007,19.7536494 5.41776007,19.7536494 L7.66334046,20.0054829 L7.55101627,20.8447277 L0.364978334,21.0128168 L0.364978334,20.0613125 Z" id="Fill-21"></path>
                        <path d="M8.8138654,20.0614326 C9.96481193,19.9215584 10.4138076,19.2501026 10.4138076,18.2427687 L10.4138076,11.6116542 C10.4138076,10.4644462 10.3858018,9.76477533 9.57182783,9.76477533 L8.44888707,9.76477533 L8.44888707,8.86940078 C11.7613967,8.33781904 14.1193013,7.47065945 14.1193013,7.47065945 L14.2033186,7.55470399 C14.2033186,7.55470399 13.9509656,8.17003012 13.8106356,10.6601499 C14.7929453,9.37336788 16.5052116,7.86236705 18.8071047,7.86236705 C20.7440194,7.86236705 22.1473189,8.92553053 22.1473189,11.639569 L22.1473189,18.2427687 C22.1473189,19.0820135 22.0072901,19.7255545 22.0072901,19.7255545 L24.2528705,20.0053028 L24.1405463,20.8448478 L17.2911798,21.0126367 L17.2911798,20.0614326 C18.2454837,19.9215584 18.5544505,19.2501026 18.5544505,18.2427687 L18.5544505,12.7306472 C18.5544505,10.7721092 18.0774492,10.324572 16.9825142,10.324572 C16.056216,10.324572 14.9052695,10.6601499 14.0069771,11.3598207 L14.0069771,18.2427687 C14.0069771,19.0820135 13.8666471,19.7255545 13.8666471,19.7255545 L15.634925,20.0053028 L15.5226008,20.8448478 L8.8138654,21.0126367 L8.8138654,20.0614326 Z" id="Fill-23"></path>
                        <path d="M26.4977282,11.807478 C26.4977282,10.9958478 26.5817455,9.98881407 26.5817455,9.98881407 L24.7851607,9.98881407 L24.7851607,8.78577646 C24.7851607,8.78577646 26.0767383,8.53394299 26.7503823,7.91831671 L27.8170104,4.75644091 L30.2309265,4.84048546 L30.3155461,4.92453 C30.3155461,4.92453 30.0625908,5.54015628 30.0625908,7.66648324 L30.0625908,8.19806497 L34.0487445,8.19806497 L33.852403,9.90476953 L30.4275692,9.90476953 L30.0908977,10.2406475 L30.0908977,16.4521396 C30.0908977,18.0747996 30.3995634,19.0260038 31.8591756,19.0260038 C33.0941394,19.0260038 34.2453871,18.3827629 34.2453871,18.3827629 L34.6943827,19.1100483 C34.6943827,19.1100483 32.8137806,21.2645902 29.9222609,21.2645902 C27.9013289,21.2645902 26.4977282,20.2011266 26.4977282,17.5990475 L26.4977282,11.807478 Z" id="Fill-25"></path>
                        <path d="M38.7920173,12.9826308 L43.3955023,12.3949193 C43.3955023,12.3949193 43.311485,9.20542888 41.2902519,9.20542888 C39.8023328,9.20542888 38.9043415,10.9400482 38.7920173,12.9826308 M41.8798786,7.86221697 C44.4341246,7.86221697 46.7920292,9.34530301 46.9043534,12.8427567 C46.9043534,12.8427567 45.6130769,13.2902939 45.0517571,13.3743384 L39.100683,14.2697129 L38.84833,14.6052908 C39.1569957,16.7877475 40.335948,18.7462855 43.1991608,18.7462855 C45.2200928,18.7462855 46.5396762,17.6272925 46.5396762,17.6272925 L46.8763477,18.4386225 C46.8763477,18.4386225 45.3604228,21.2646202 41.8235659,21.2646202 C37.6970823,21.2646202 35.4795077,18.1306592 35.4795077,14.8012947 C35.4795077,10.967963 38.2306975,7.86221697 41.8798786,7.86221697" id="Fill-27"></path>
                        <path d="M48.5598554,20.0614326 C49.7108019,19.9215584 50.1597975,19.2501026 50.1597975,18.2427687 L50.1597975,11.639569 C50.1597975,10.492361 50.1317918,9.79299028 49.3178178,9.79299028 L48.1948771,9.79299028 L48.1948771,8.89761574 C51.5073867,8.366034 53.8652913,7.47065945 53.8652913,7.47065945 L53.9493086,7.55470399 C53.9493086,7.55470399 53.6969556,8.17003012 53.5566256,10.9681131 C53.5566256,10.9681131 55.3249035,7.86236705 57.5424781,7.86236705 C58.7214304,7.86236705 59.2827502,8.70161185 59.2827502,9.54115681 C59.2827502,10.4365314 58.6374131,11.3319059 57.4864666,11.3319059 C56.5881742,11.3319059 56.4475431,10.7721092 55.7458933,10.7721092 C54.8479021,10.7721092 53.7529671,11.6674838 53.7529671,11.6674838 L53.7529671,18.2427687 C53.7529671,19.0820135 53.6126371,19.7537695 53.6126371,19.7537695 L56.1388774,20.0053028 L56.0268544,20.8448478 L48.5598554,21.0126367 L48.5598554,20.0614326 Z" id="Fill-29"></path>
                        <path d="M60.7262215,20.0614326 C61.877168,19.9215584 62.3261636,19.2501026 62.3261636,18.2427687 L62.3261636,11.6116542 C62.3261636,10.4644462 62.2981578,9.76477533 61.4841839,9.76477533 L60.3612431,9.76477533 L60.3612431,8.86940078 C63.6737527,8.33781904 66.0316573,7.47065945 66.0316573,7.47065945 L66.1156746,7.55470399 C66.1156746,7.55470399 65.8633216,8.17003012 65.7229917,10.6601499 C66.7053013,9.37336788 68.4175677,7.86236705 70.7194607,7.86236705 C72.6563755,7.86236705 74.059675,8.92553053 74.059675,11.639569 L74.059675,18.2427687 C74.059675,19.0820135 73.9196462,19.7255545 73.9196462,19.7255545 L76.1652266,20.0053028 L76.0529024,20.8448478 L69.2035359,21.0126367 L69.2035359,20.0614326 C70.1578398,19.9215584 70.4668066,19.2501026 70.4668066,18.2427687 L70.4668066,12.7306472 C70.4668066,10.7721092 69.9898052,10.324572 68.8948702,10.324572 C67.9685721,10.324572 66.8176255,10.6601499 65.9193331,11.3598207 L65.9193331,18.2427687 C65.9193331,19.0820135 65.7790032,19.7255545 65.7790032,19.7255545 L67.5472811,20.0053028 L67.4349569,20.8448478 L60.7262215,21.0126367 L60.7262215,20.0614326 Z" id="Fill-31"></path>
                        <path d="M83.9682044,18.1587541 L83.9682044,14.6613005 L83.2102419,14.8011746 C81.7506297,15.0530081 80.5153648,15.8364233 80.5153648,17.4314687 C80.5153648,18.2986283 80.9083489,19.0541287 81.8629539,19.0541287 C82.6206152,19.0541287 83.4068846,18.6345063 83.9682044,18.1587541 M83.0135993,13.5423074 L83.9962101,13.4021331 C83.9962101,12.4788438 83.9962101,11.135932 83.8558802,10.4644762 C83.6872433,9.65314617 83.2662535,9.12156443 82.5365979,9.12156443 C80.9366558,9.12156443 79.8417208,12.1153511 79.8417208,12.1153511 L78.5504443,12.1153511 L77.9328118,9.65314617 C77.9328118,9.65314617 80.2066991,7.86239707 83.8838859,7.86239707 C86.8314172,7.86239707 87.5613739,8.98139014 87.5613739,11.8632175 L87.5613739,18.1587541 C87.5613739,18.9979989 87.7014027,19.4737511 88.2350179,19.4737511 C88.8243435,19.4737511 89.4702829,18.9979989 89.4702829,18.9979989 L89.9192785,19.7534994 C89.9192785,19.7534994 88.5436836,21.2645002 86.4384331,21.2645002 C85.0068267,21.2645002 84.0805286,20.5930443 84.0805286,19.3900067 L84.0805286,18.9421693 C84.0805286,18.9421693 82.6206152,21.2645002 80.1503865,21.2645002 C78.4941316,21.2645002 76.8661837,20.2292515 76.8661837,18.1308393 C76.8661837,15.3048416 80.1503865,13.9619298 83.0135993,13.5423074" id="Fill-33"></path>
                        <path d="M92.0794865,11.807478 C92.0794865,10.9958478 92.1635038,9.98881407 92.1635038,9.98881407 L90.366919,9.98881407 L90.366919,8.78577646 C90.366919,8.78577646 91.6584966,8.53394299 92.3321406,7.91831671 L93.3987687,4.75644091 L95.8126848,4.84048546 L95.8973044,4.92453 C95.8973044,4.92453 95.6443491,5.54015628 95.6443491,7.66648324 L95.6443491,8.19806497 L99.6305027,8.19806497 L99.4341613,9.90476953 L96.0093274,9.90476953 L95.672656,10.2406475 L95.672656,16.4521396 C95.672656,18.0747996 95.9813217,19.0260038 97.4409339,19.0260038 C98.6758977,19.0260038 99.8271454,18.3827629 99.8271454,18.3827629 L100.276141,19.1100483 C100.276141,19.1100483 98.3955389,21.2645902 95.5040192,21.2645902 C93.4830871,21.2645902 92.0794865,20.2011266 92.0794865,17.5990475 L92.0794865,11.807478 Z" id="Fill-35"></path>
                        <path d="M102.240519,3.46941879 C102.240519,2.29429598 103.110806,1.48296597 104.317764,1.48296597 C105.524722,1.48296597 106.395009,2.29429598 106.395009,3.46941879 C106.395009,4.61662681 105.524722,5.42795682 104.317764,5.42795682 C103.110806,5.42795682 102.240519,4.61662681 102.240519,3.46941879 L102.240519,3.46941879 Z M101.173891,20.0613125 C102.324838,19.9214384 102.773833,19.2499825 102.773833,18.2426486 L102.773833,11.6115341 C102.773833,10.4643261 102.745828,9.76495543 101.931854,9.76495543 L100.808913,9.76495543 L100.808913,8.86958088 C104.121423,8.33799914 106.53564,7.47053939 106.53564,7.47053939 L106.619657,7.55458393 C106.619657,7.55458393 106.367003,8.47787327 106.367003,10.7440744 L106.367003,18.2426486 C106.367003,19.0821936 106.226673,19.7536494 106.226673,19.7536494 L108.472253,20.0054829 L108.359929,20.8447277 L101.173891,21.0128168 L101.173891,20.0613125 Z" id="Fill-37"></path>
                        <path d="M116.528066,20.0334277 C118.885971,20.0334277 119.363273,16.5921038 119.307262,14.6053508 C119.279256,12.0873163 118.380662,9.09352957 116.135082,9.09352957 C114.142156,9.09352957 113.271869,11.4996048 113.271869,14.1016839 C113.271869,16.8157223 114.226173,20.0334277 116.528066,20.0334277 M116.444049,7.86227701 C120.65455,7.86227701 123.209097,10.4364413 123.209097,14.0737691 C123.209097,17.5991375 120.850891,21.2646803 116.07907,21.2646803 C112.008598,21.2646803 109.39804,18.5785566 109.39804,14.8292695 C109.39804,11.5278197 111.447279,7.86227701 116.444049,7.86227701" id="Fill-39"></path>
                        <path d="M124.836111,20.0614326 C125.987058,19.9215584 126.436053,19.2501026 126.436053,18.2427687 L126.436053,11.6116542 C126.436053,10.4644462 126.408048,9.76477533 125.594074,9.76477533 L124.471133,9.76477533 L124.471133,8.86940078 C127.783643,8.33781904 130.141547,7.47065945 130.141547,7.47065945 L130.225564,7.55470399 C130.225564,7.55470399 129.973211,8.17003012 129.832881,10.6601499 C130.815191,9.37336788 132.527457,7.86236705 134.829351,7.86236705 C136.766265,7.86236705 138.169565,8.92553053 138.169565,11.639569 L138.169565,18.2427687 C138.169565,19.0820135 138.029536,19.7255545 138.029536,19.7255545 L140.275116,20.0053028 L140.162792,20.8448478 L133.313426,21.0126367 L133.313426,20.0614326 C134.26773,19.9215584 134.576696,19.2501026 134.576696,18.2427687 L134.576696,12.7306472 C134.576696,10.7721092 134.099695,10.324572 133.00476,10.324572 C132.078462,10.324572 130.927515,10.6601499 130.029223,11.3598207 L130.029223,18.2427687 C130.029223,19.0820135 129.888893,19.7255545 129.888893,19.7255545 L131.657171,20.0053028 L131.544847,20.8448478 L124.836111,21.0126367 L124.836111,20.0614326 Z" id="Fill-41"></path>
                        <path d="M148.078064,18.1587541 L148.078064,14.6613005 L147.320102,14.8011746 C145.860489,15.0530081 144.625224,15.8364233 144.625224,17.4314687 C144.625224,18.2986283 145.018209,19.0541287 145.972814,19.0541287 C146.730475,19.0541287 147.516744,18.6345063 148.078064,18.1587541 M147.123459,13.5423074 L148.10607,13.4021331 C148.10607,12.4788438 148.10607,11.135932 147.96574,10.4644762 C147.797103,9.65314617 147.376113,9.12156443 146.646458,9.12156443 C145.046515,9.12156443 143.95158,12.1153511 143.95158,12.1153511 L142.660304,12.1153511 L142.042672,9.65314617 C142.042672,9.65314617 144.316559,7.86239707 147.993746,7.86239707 C150.941277,7.86239707 151.671234,8.98139014 151.671234,11.8632175 L151.671234,18.1587541 C151.671234,18.9979989 151.811262,19.4737511 152.344878,19.4737511 C152.934203,19.4737511 153.580143,18.9979989 153.580143,18.9979989 L154.029138,19.7534994 C154.029138,19.7534994 152.653543,21.2645002 150.548293,21.2645002 C149.116686,21.2645002 148.190388,20.5930443 148.190388,19.3900067 L148.190388,18.9421693 C148.190388,18.9421693 146.730475,21.2645002 144.260246,21.2645002 C142.603991,21.2645002 140.976043,20.2292515 140.976043,18.1308393 C140.976043,15.3048416 144.260246,13.9619298 147.123459,13.5423074" id="Fill-43"></path>
                        <path d="M154.701638,20.0614326 C155.852283,19.9215584 156.30158,19.2501026 156.30158,18.2427687 L156.30158,4.16890952 C156.30158,3.0217015 156.273574,2.32233084 155.4596,2.32233084 L154.420677,2.32233084 L154.420677,1.42695629 C158.912139,0.531581738 160.091091,0 160.091091,0 L160.175409,0.0840445436 C160.175409,0.0840445436 159.89475,1.09107827 159.89475,3.24562018 L159.89475,18.2427687 C159.89475,19.0820135 159.754118,19.7537695 159.754118,19.7537695 L162,20.0053028 L161.887676,20.8448478 L154.701638,21.0126367 L154.701638,20.0614326 Z" id="Fill-45"></path>
                        <path d="M0.845201889,43.7092259 L1.773608,43.7092259 C1.97055175,46.0927892 3.60241445,46.8221758 4.84069078,46.8221758 C5.88172222,46.8221758 6.61288343,46.2611784 6.61288343,45.2796582 C6.61288343,42.5031867 0.648559272,42.8960949 0.648559272,38.5494912 C0.648559272,36.0251533 2.67400834,34.5669805 5.43122091,34.5669805 C7.09108937,34.5669805 9.31378333,35.0997629 9.31378333,35.0997629 L8.66694054,38.2688425 L7.71022753,38.2688425 C7.56959644,36.109498 6.24700169,35.7448047 5.43122091,35.7448047 C4.41849637,35.7448047 3.77135244,36.334017 3.77135244,37.2594075 C3.77135244,40.0917086 9.70797198,39.4466667 9.70797198,43.9055299 C9.70797198,46.6817013 7.48527801,48 4.72806545,48 C3.03989009,48 0.338689053,47.4672176 0.338689053,46.0369596 C0.338689053,45.3640029 0.845201889,43.7092259 0.845201889,43.7092259" id="Fill-47"></path>
                        <path d="M17.9797301,34.5669805 C19.6676043,34.5669805 22.5094365,35.1279778 22.5094365,36.8106697 C22.5094365,37.5118413 21.9749179,38.1847979 21.1308302,38.1847979 C19.5272744,38.1847979 19.5832859,35.8009345 17.5858426,35.8009345 C15.6727177,35.8009345 14.6316863,37.9605791 14.6316863,40.4281869 C14.6316863,43.2607882 16.0102926,45.4762624 18.9081362,45.4762624 C20.849568,45.4762624 22.2281743,44.4944421 22.2281743,44.4944421 L22.5657491,45.3078732 C22.5657491,45.3078732 21.0465118,48 17.3888989,48 C13.4783307,48 11.2836425,44.9152651 11.2836425,41.6342261 C11.2836425,38.2970574 13.6189618,34.5669805 17.9797301,34.5669805" id="Fill-49"></path>
                        <path d="M23.8039652,46.7940508 C24.957622,46.6538766 25.407521,45.9809199 25.407521,44.9711847 L25.407521,30.8652086 C25.407521,29.7155993 25.3795153,29.0144276 24.5634334,29.0144276 L23.5224019,29.0144276 L23.5224019,28.116952 C28.0244036,27.2194763 29.205765,26.6866939 29.205765,26.6866939 L29.2903846,26.7710387 C29.2903846,26.7710387 29.0088213,27.7804737 29.0088213,29.9398181 L29.0088213,34.8192042 C29.0088213,36.2497624 28.8964971,37.0346784 28.8964971,37.3711567 C29.8812159,36.0816733 31.5130786,34.5670705 33.8200909,34.5670705 C35.7615227,34.5670705 37.1681348,35.6326353 37.1681348,38.3529771 L37.1681348,44.9711847 C37.1681348,45.8125306 37.0275037,46.4575725 37.0275037,46.4575725 L39.2785045,46.7379211 L39.1658792,47.579267 L32.3008536,47.7476563 L32.3008536,46.7940508 C33.2575666,46.6538766 33.5668345,45.9809199 33.5668345,44.9711847 L33.5668345,39.4464566 C33.5668345,37.4834162 33.0886286,37.0346784 31.9912845,37.0346784 C31.0625772,37.0346784 29.9092216,37.3711567 29.0088213,38.0723283 L29.0088213,44.9711847 C29.0088213,45.8125306 28.8681902,46.4857875 28.8681902,46.4857875 L30.640684,46.7379211 L30.5283598,47.579267 L23.8039652,47.7476563 L23.8039652,46.7940508 Z" id="Fill-51"></path>
                        <path d="M47.3812042,46.7661961 C49.7445293,46.7661961 50.2230364,43.3167679 50.1664226,41.3255125 C50.1384168,38.8017749 49.2380165,35.8010846 46.9870156,35.8010846 C44.9898734,35.8010846 44.1174788,38.2128628 44.1174788,40.8206449 C44.1174788,43.5409867 45.0741919,46.7661961 47.3812042,46.7661961 M47.2968858,34.5668304 C51.5170231,34.5668304 54.0772919,37.1469979 54.0772919,40.7927301 C54.0772919,44.3262029 51.7139668,47.9998499 46.9310041,47.9998499 C42.8514979,47.9998499 40.2349164,45.3080233 40.2349164,41.5500315 C40.2349164,38.2407776 42.2886724,34.5668304 47.2968858,34.5668304" id="Fill-53"></path>
                        <path d="M62.7430279,46.7661961 C65.1063529,46.7661961 65.58486,43.3167679 65.5282462,41.3255125 C65.5002404,38.8017749 64.5998401,35.8010846 62.3488392,35.8010846 C60.3516971,35.8010846 59.4793025,38.2128628 59.4793025,40.8206449 C59.4793025,43.5409867 60.4360155,46.7661961 62.7430279,46.7661961 M62.6587095,34.5668304 C66.8788467,34.5668304 69.4391155,37.1469979 69.4391155,40.7927301 C69.4391155,44.3262029 67.0757905,47.9998499 62.2928277,47.9998499 C58.2133215,47.9998499 55.5967401,45.3080233 55.5967401,41.5500315 C55.5967401,38.2407776 57.650496,34.5668304 62.6587095,34.5668304" id="Fill-55"></path>
                        <path d="M70.7616802,46.7940508 C71.9153369,46.6538766 72.365236,45.9809199 72.365236,44.9711847 L72.365236,30.8652086 C72.365236,29.7155993 72.3372302,29.0144276 71.5211483,29.0144276 L70.4801169,29.0144276 L70.4801169,28.116952 C74.9821186,27.2194763 76.16348,26.6866939 76.16348,26.6866939 L76.2480995,26.7710387 C76.2480995,26.7710387 75.9665362,27.7804737 75.9665362,29.9398181 L75.9665362,44.9711847 C75.9665362,45.8125306 75.8259051,46.4857875 75.8259051,46.4857875 L78.076906,46.7379211 L77.9642807,47.579267 L70.7616802,47.7476563 L70.7616802,46.7940508 Z" id="Fill-57"></path>
                    </g>
                    <g id="Group-92">
                        <mask id="mask-2" fill="white">
                            <use xlink:href="#path-1"></use>
                        </mask>
                        <use id="Clip-91" fill="#FFFFFF" xlink:href="#path-1"></use>
                    </g>
                </g>
            </g>
        </g>
    </g>
</svg>